<svg version="1.1" id="Layer_1" xmlns="http://www.w3.org/2000/svg" xmlns:xlink="http://www.w3.org/1999/xlink" x="0px" y="0px"
	 width="100%" viewBox="0 0 1000 1000" enable-background="new 0 0 1000 1000" xml:space="preserve">
<path fill="#FFFFFF" opacity="1.000000" stroke="none" 
	d="
M632.000000,1001.000000 
	C422.833344,1001.000000 214.166672,1000.988281 5.500047,1001.093567 
	C1.750767,1001.095459 0.905755,1000.249084 0.906896,996.500000 
	C1.007416,666.166687 1.007416,335.833344 0.906896,5.500028 
	C0.905755,1.750898 1.750897,0.905753 5.500028,0.906894 
	C335.833344,1.007430 666.166687,1.007430 996.500000,0.906894 
	C1000.249084,0.905753 1001.094238,1.750897 1001.093140,5.500028 
	C1000.992615,335.833344 1000.992615,666.166687 1001.093140,996.500000 
	C1001.094299,1000.249084 1000.249512,1001.097900 996.499939,1001.094360 
	C875.166687,1000.979858 753.833313,1001.000000 632.000000,1001.000000 
z"/>
<path fill="#C0CDF9" opacity="1.000000" stroke="none" 
	d="
M689.197815,745.842346 
	C686.642456,746.795410 684.363831,747.017151 682.010315,747.010742 
	C661.062073,746.953247 640.094482,747.499207 619.172058,746.755920 
	C605.066162,746.254761 590.966553,746.232483 576.399475,745.804321 
	C572.944946,744.454224 569.681458,744.518311 566.625916,744.582336 
	C539.855286,745.142944 513.445129,741.603699 487.206390,737.099182 
	C464.734833,733.241333 442.415466,728.277649 421.523804,718.630859 
	C410.152832,713.380188 399.392792,707.243225 390.473450,698.076294 
	C381.057159,688.398499 374.927399,676.858887 370.372498,664.471741 
	C365.448792,651.081543 363.592957,637.042847 363.609467,622.767273 
	C363.616852,616.373413 363.317505,616.208679 357.067291,618.207520 
	C354.514679,619.023926 351.954498,619.866150 349.061646,618.135620 
	C348.018127,615.959839 349.175995,614.594788 350.214630,613.357727 
	C363.605835,597.408020 373.611237,578.940186 387.179596,563.171814 
	C398.519653,549.993042 405.120911,550.069885 417.453125,553.938416 
	C428.777527,557.490845 439.158356,563.199463 450.417603,567.797852 
	C452.386749,568.921936 454.095978,569.709290 456.348022,570.097229 
	C456.926758,570.278320 457.155060,570.365234 457.713257,570.616272 
	C469.253448,576.211121 481.101532,580.163086 492.326843,585.563232 
	C494.120453,586.426025 496.049927,587.015381 497.614532,588.926758 
	C500.373077,595.562561 503.470703,601.640686 505.543915,608.159363 
	C509.184631,619.606628 510.848816,631.122009 507.720978,642.987610 
	C507.002380,645.713623 506.490112,648.505188 506.079224,651.300537 
	C505.871185,652.716064 505.247711,654.429382 507.182434,655.167542 
	C508.775146,655.775085 510.096466,654.931885 511.202972,653.837036 
	C516.458435,648.637024 516.845581,641.891663 516.353821,635.256958 
	C515.386169,622.199463 512.104248,609.726624 505.267395,598.362976 
	C504.171600,596.541565 503.010742,594.626892 503.668549,591.933594 
	C507.111511,590.620850 510.096924,591.911438 513.101440,592.735168 
	C523.200562,595.504028 533.397217,597.731323 544.265381,598.675659 
	C545.239319,598.717468 545.791138,598.781311 546.744263,598.962891 
	C550.330627,600.088867 553.622375,599.472534 557.263855,599.711182 
	C559.285461,599.897583 560.812866,600.374146 562.616028,601.250610 
	C569.508179,608.046082 576.888000,613.780701 582.677979,621.201904 
	C589.287231,629.673218 593.721802,638.957886 595.182922,649.621948 
	C595.318542,650.611755 595.274109,651.644043 595.571899,652.591064 
	C596.182068,654.531311 595.800293,657.652710 598.630920,657.555237 
	C600.945068,657.475586 601.833923,654.760864 602.286621,652.674927 
	C603.964600,644.944031 601.105103,638.039673 597.104858,631.885559 
	C591.016907,622.519714 583.871643,613.922913 574.994629,606.934753 
	C573.766663,605.968140 572.419373,605.480896 570.983337,605.025879 
	C569.285034,604.487793 567.664062,603.783630 569.566040,601.344482 
	C576.565552,601.006104 583.189392,601.818054 590.269226,601.595459 
	C609.743164,602.489746 628.292419,600.077087 646.603333,593.331055 
	C656.684021,597.398865 667.106506,599.088196 676.936890,602.733337 
	C694.871643,609.383789 709.602417,620.349304 721.823608,634.920471 
	C723.528748,636.953552 725.128357,640.815063 728.224792,639.093811 
	C731.117310,637.485901 729.812134,633.690918 729.068726,630.829651 
	C727.369019,624.287415 722.349426,620.255859 717.467651,616.256226 
	C707.542908,608.125000 695.972046,603.076782 683.995972,598.826965 
	C676.932007,596.320251 669.844421,593.944092 662.337646,593.139465 
	C661.159607,593.013184 660.052673,592.688110 658.926697,591.559753 
	C657.816895,588.403320 660.227234,587.954529 661.881226,587.098816 
	C671.460388,582.142822 680.833374,576.839417 689.872559,570.946411 
	C700.330017,564.128906 709.734131,556.011108 718.907227,547.601685 
	C720.000183,546.599670 720.946350,545.372986 722.993530,545.301514 
	C737.691650,547.106995 752.202698,547.458984 766.154602,551.850403 
	C778.467590,555.726013 789.028625,561.661011 795.201233,573.636841 
	C796.508606,576.173340 798.328369,578.380798 800.967529,579.679077 
	C802.493469,580.429810 804.221497,580.945740 805.620056,579.565857 
	C806.869995,578.332520 806.467224,576.683777 805.716064,575.378967 
	C798.233826,562.382874 789.041443,551.157654 773.681702,547.295166 
	C759.847412,543.816223 745.759705,543.371399 731.605347,545.110474 
	C729.782043,545.334473 727.958862,545.418640 725.798584,544.800293 
	C723.235962,542.592773 725.133423,541.097778 726.219788,539.584778 
	C729.675598,534.772156 734.172363,530.747253 737.139038,525.101074 
	C744.444153,516.119019 752.001770,507.805481 758.269470,498.464508 
	C759.195068,497.085052 760.197571,495.771759 762.195801,495.026978 
	C776.440674,493.312714 790.087219,495.387238 803.656982,497.834045 
	C814.657532,499.817627 825.387024,502.731537 834.956787,508.977753 
	C841.411926,513.190979 846.229309,518.766602 850.059937,525.326477 
	C851.673096,528.088989 853.540955,530.648376 856.339111,532.309326 
	C858.273132,533.457275 860.474487,534.160034 862.392212,532.505737 
	C864.264832,530.890320 863.517212,528.723206 862.536865,526.989075 
	C854.983398,513.626892 845.366516,502.124512 830.310791,497.223907 
	C815.393799,492.368378 800.065674,489.914307 784.137024,491.963348 
	C778.150024,492.733521 771.977478,494.199860 765.456055,492.618774 
	C763.595154,490.528168 764.883423,488.912842 765.791199,487.426025 
	C770.994629,478.903931 774.516296,469.516449 779.550781,460.907532 
	C783.164673,454.727600 783.974487,447.742828 785.090149,440.460327 
	C793.795593,421.973053 798.714478,402.528473 805.526123,383.767273 
	C810.422180,370.282043 819.866028,360.113983 830.926270,351.671539 
	C851.457153,335.999939 875.242737,327.577026 900.295105,322.348663 
	C902.324219,321.925171 904.257507,322.219086 906.567993,322.279541 
	C907.740295,322.318542 908.575928,322.538971 909.710205,322.902832 
	C912.640930,328.241058 910.350586,333.538055 909.981689,338.680054 
	C908.767334,355.607269 907.418518,372.555359 905.178528,389.369476 
	C903.422607,402.550446 902.234619,415.799500 900.056519,428.954498 
	C898.241333,439.917480 896.504028,450.950775 895.114685,462.017700 
	C893.563660,474.372192 890.552185,486.537079 888.438293,498.835815 
	C886.350891,510.980377 883.209290,522.905518 880.575806,534.936462 
	C874.978577,560.507080 867.700500,585.560730 858.983948,610.246216 
	C850.352173,634.691650 839.824890,658.238770 826.062744,680.177856 
	C815.247253,697.419617 802.958740,713.578674 786.461853,726.064636 
	C772.314392,736.772400 756.231445,741.754822 738.796021,743.370300 
	C729.187500,744.260742 719.608521,745.530396 709.960693,745.892822 
	C703.148254,746.148804 696.339966,745.052856 689.197815,745.842346 
z"/>
<path fill="#FCF8ED" opacity="1.000000" stroke="none" 
	d="
M495.864441,422.404816 
	C496.691528,417.911041 494.864532,414.096649 493.732697,410.430725 
	C489.080139,395.361328 489.402679,379.920593 490.243317,364.599548 
	C490.760925,355.166260 493.197052,345.791992 495.670929,336.539032 
	C499.543884,322.053162 506.316589,308.793152 513.451843,295.873627 
	C519.486511,284.946991 527.363586,275.001862 534.785034,264.886261 
	C544.196167,252.058655 555.007751,240.399399 567.331909,230.364090 
	C577.470154,222.108658 588.798157,215.518906 600.541748,209.696320 
	C603.502930,208.228149 606.225525,206.280411 609.065125,204.565140 
	C612.980408,202.200012 613.936096,202.677963 613.989136,207.162445 
	C614.130432,219.106598 613.359253,230.996780 612.123230,242.878815 
	C611.643311,247.492355 612.004700,252.194504 612.001404,256.856293 
	C611.994385,267.012909 611.873352,277.171387 612.026794,287.325684 
	C612.300964,305.462830 615.301392,323.142822 620.903137,340.427399 
	C623.038574,347.016510 624.756287,353.722961 627.814575,359.987946 
	C628.382446,361.151276 628.835632,362.041138 630.624146,361.993073 
	C631.976074,369.813446 636.652527,375.983185 639.975525,382.798004 
	C647.018311,397.241638 656.372925,410.172333 665.345398,423.371796 
	C665.908386,424.199951 666.325684,425.112152 666.596863,426.462219 
	C664.830139,431.153137 660.771729,433.429535 657.562683,436.374603 
	C650.264221,443.072601 642.848938,449.644653 635.693481,456.500397 
	C634.146240,457.982788 632.705017,459.636017 630.023682,459.965668 
	C627.501587,459.764008 625.876465,458.807037 625.014099,456.731628 
	C616.525208,436.301147 605.639343,416.984467 597.199036,396.509186 
	C594.109924,389.015137 590.216553,381.796936 587.056213,374.280060 
	C580.521179,358.736572 576.506165,342.977173 583.132080,326.386536 
	C587.748840,314.826538 594.110718,304.364807 603.203674,295.586823 
	C596.441101,299.063904 587.549561,309.249756 582.079590,319.632080 
	C580.132874,323.326996 578.792603,327.286682 576.951172,331.022888 
	C576.024170,332.903778 575.576843,335.585541 572.817627,335.361450 
	C570.026367,335.134766 569.299133,332.505707 568.661133,330.298553 
	C565.901978,320.754333 565.210266,311.061737 566.084900,301.129120 
	C567.270752,287.661499 570.347961,274.691315 575.044434,262.050751 
	C570.489624,275.540070 564.594849,288.604462 562.775330,302.922424 
	C562.182190,307.589996 562.460510,312.235748 562.241211,316.886963 
	C562.150085,318.821167 562.680908,321.259766 560.460571,322.214355 
	C558.127380,323.217438 556.381470,321.389008 554.770020,319.970459 
	C546.199158,312.425507 539.689880,303.288544 536.538635,297.284149 
	C542.226501,307.793152 550.466309,322.031036 563.480286,332.805603 
	C566.224182,335.077301 567.229248,338.709137 568.431641,341.956970 
	C578.967590,370.415039 593.001465,397.310364 605.556824,424.859924 
	C608.927246,432.255432 612.383118,439.671509 616.184448,446.889343 
	C616.650269,447.773834 617.149414,448.644104 617.477661,449.592010 
	C618.097107,451.380890 618.492065,453.284210 617.161865,454.824097 
	C615.625793,456.602264 613.523254,456.199524 611.591187,455.519501 
	C607.649292,454.132019 604.196960,451.708313 600.331543,450.128723 
	C589.536499,445.717377 579.156189,440.446167 568.882996,434.938019 
	C549.807068,424.710052 535.967285,409.271240 524.765442,391.158386 
	C524.518799,390.502563 523.910156,391.410126 524.432434,390.995758 
	C524.535156,390.914246 524.661743,391.009491 524.812256,391.281555 
	C531.523499,403.407257 538.977661,414.923035 548.942627,424.785980 
	C558.442383,434.188629 569.689819,440.837280 581.154419,447.326691 
	C590.850281,452.814880 601.779114,455.928467 610.737122,462.837158 
	C612.583008,464.260681 614.825867,465.218201 614.976685,468.343842 
	C614.369385,472.258972 611.913086,473.955841 608.806030,475.213867 
	C606.072144,476.320831 602.885193,476.325073 600.369263,478.795349 
	C599.778442,479.365784 599.382874,479.612579 598.613281,479.895020 
	C597.380249,480.189972 596.460388,480.279053 595.231567,480.607422 
	C594.424072,480.758911 593.953857,480.780487 593.125183,480.721191 
	C591.825195,480.462738 590.874878,480.298584 589.521240,480.322815 
	C582.250671,479.861542 575.714783,477.678680 568.656555,476.082184 
	C554.823547,468.334625 539.661804,464.807892 525.721069,458.338470 
	C521.624329,456.437286 517.296265,455.438965 512.490356,454.727295 
	C507.933258,451.020630 506.255127,445.882263 503.992889,441.175659 
	C501.079803,435.115021 497.827972,429.189056 495.864441,422.404816 
z"/>
<path fill="#EEF7FC" opacity="1.000000" stroke="none" 
	d="
M256.895935,521.405151 
	C258.207367,520.150208 257.914429,519.108032 257.465607,517.928650 
	C252.894516,505.917175 248.971558,493.610199 243.611832,481.963654 
	C239.567337,473.175110 233.823013,465.148956 227.321259,457.806702 
	C217.941788,447.214691 207.614746,437.710266 195.504837,430.315735 
	C185.974503,424.496307 175.844635,419.736328 164.728653,418.279724 
	C155.881714,417.120453 147.751846,420.173004 140.739441,425.792816 
	C139.446625,426.828857 138.353821,428.111603 137.135773,429.245087 
	C136.481430,429.853973 135.597931,430.139954 134.851318,429.646393 
	C133.973694,429.066223 134.514465,428.198120 134.737335,427.410522 
	C139.802475,409.513000 149.714890,394.704315 163.432922,382.314423 
	C173.018356,373.656982 183.908752,367.104492 196.126968,363.017822 
	C207.393570,359.249420 218.943268,357.624451 230.863022,359.926361 
	C234.078491,360.547333 234.375168,362.923676 234.748596,364.972992 
	C236.085663,372.310791 237.910233,379.498169 239.856430,386.698700 
	C242.492508,396.451630 246.952011,405.222961 252.371735,413.607635 
	C252.905243,414.432953 253.663879,415.124329 254.374115,415.820618 
	C255.099548,416.531799 255.950882,417.195282 257.021637,416.678131 
	C258.223053,416.097870 257.794312,415.081635 257.557495,414.096649 
	C256.785156,410.884583 256.008026,407.706940 254.900269,404.556915 
	C251.450836,394.748291 247.982132,384.915283 247.959259,374.276520 
	C247.948715,369.377380 249.197784,365.111633 252.857376,361.298767 
	C258.638062,358.338318 264.123413,356.511963 270.544952,359.165283 
	C286.215515,365.640198 302.944733,369.645599 317.758209,378.060608 
	C333.638184,387.081512 349.491455,396.286987 363.685760,407.923401 
	C368.810608,412.124695 374.036499,416.306671 378.013031,421.747192 
	C378.661835,422.634888 379.277527,423.964172 380.663879,423.579865 
	C381.723633,423.286072 381.834167,422.037415 382.058807,421.087860 
	C384.216614,411.966858 385.474457,402.761108 384.180023,393.386993 
	C383.610535,389.262848 383.604187,385.092224 382.940796,380.974640 
	C382.714905,379.572266 382.645020,377.576233 384.451904,377.235352 
	C385.998352,376.943542 386.294281,378.830109 386.829620,379.969116 
	C389.941132,386.589355 390.700928,393.805420 391.120941,400.890045 
	C391.874817,413.605713 393.166748,426.461700 388.498779,438.850677 
	C387.794617,440.719513 388.786102,442.410248 389.247345,444.170319 
	C390.836700,450.235291 394.111023,455.899261 393.453827,462.808838 
	C389.296509,464.684601 385.064545,465.293884 380.676453,466.691833 
	C373.261963,463.690552 366.221710,460.799072 358.918762,458.550476 
	C352.307587,456.514832 346.239532,457.211945 340.366516,460.927338 
	C337.599823,462.677643 334.976410,464.836578 331.208801,465.393311 
	C322.787292,457.467102 313.019379,452.034576 303.554565,446.213135 
	C298.643066,443.192261 296.220276,439.812347 297.535614,433.582550 
	C301.404846,415.256439 295.558716,398.791260 286.801758,383.042358 
	C289.303833,388.583435 291.466278,394.255096 293.481628,399.998535 
	C297.075439,410.240479 297.411011,420.518463 294.373169,430.911163 
	C292.527283,437.225983 289.774292,438.410645 284.091003,435.047729 
	C264.433350,423.416046 243.268021,415.534210 221.227936,409.962982 
	C203.454590,405.470306 185.398010,404.627319 167.263275,407.493652 
	C161.197876,408.452362 155.288071,410.188171 149.921356,413.339905 
	C156.195816,409.822357 163.072113,407.976257 170.102951,407.146881 
	C191.891251,404.576538 213.073044,406.640625 233.885925,414.359711 
	C265.374969,426.038391 294.553436,441.652924 320.999634,462.344666 
	C323.034149,463.936493 325.393555,464.647491 327.943420,465.879150 
	C329.054993,469.003387 326.658356,469.944611 325.054993,471.153961 
	C308.735992,483.462708 293.770905,497.279114 279.385834,511.763306 
	C275.988922,515.183655 273.356171,519.265503 269.736725,522.474487 
	C268.130341,523.898682 266.745209,525.620605 264.083740,526.072754 
	C260.652252,525.871521 257.977814,525.030457 256.895935,521.405151 
z"/>
<path fill="#B5C4F7" opacity="1.000000" stroke="none" 
	d="
M689.361450,746.131104 
	C689.978821,744.671814 691.570801,744.976135 693.028137,745.015808 
	C711.488098,745.517944 729.740601,743.021545 747.982483,740.862183 
	C763.619263,739.011230 777.372437,732.105591 789.314514,722.058350 
	C806.508911,707.592041 819.207947,689.449280 830.461548,670.167542 
	C840.512756,652.946045 848.578186,634.763000 855.567810,616.206055 
	C861.248474,601.124146 865.859741,585.600464 870.336426,570.054504 
	C875.787720,551.124023 879.921021,531.894653 884.307190,512.744507 
	C886.762207,502.026123 888.108215,490.914368 890.330750,480.123169 
	C892.796936,468.149292 894.398804,456.069183 896.294983,444.047058 
	C898.529846,429.877899 900.952393,415.722351 902.238708,401.372864 
	C903.105103,391.708313 904.447144,382.018005 905.679871,372.352722 
	C906.662964,364.645081 907.294067,356.890289 907.975342,349.147064 
	C908.714783,340.742218 909.331360,332.326630 910.005249,323.481018 
	C915.366028,322.735870 918.422729,325.681091 919.951294,330.402679 
	C924.151428,343.376740 926.323730,356.830017 928.920471,370.164520 
	C931.702087,384.448242 931.457458,398.986847 930.829895,413.420105 
	C930.167725,428.646179 928.952515,443.844879 927.260376,459.029663 
	C924.152039,486.921783 919.146240,514.440735 912.983093,541.773621 
	C906.065796,572.451233 896.918945,602.492126 885.770142,631.876587 
	C875.111267,659.969666 859.134155,684.735046 836.566467,704.793152 
	C812.714050,725.993042 784.965576,739.670227 753.612244,745.855652 
	C745.397034,747.476379 737.040894,746.779907 728.739197,747.014832 
	C715.752563,747.382446 702.808350,746.303467 689.361450,746.131104 
z"/>
<path fill="#B5C4F7" opacity="1.000000" stroke="none" 
	d="
M348.654602,616.886780 
	C352.518585,619.484192 355.654846,617.236938 358.788605,616.052856 
	C364.058838,614.061401 365.065735,614.558105 364.979248,620.014893 
	C364.741058,635.043518 366.460236,649.853088 371.604523,663.966492 
	C378.826935,683.781311 390.339233,700.178650 409.373718,710.891418 
	C423.072296,718.601074 437.552704,724.124817 452.525787,728.118225 
	C473.893280,733.817017 495.700256,737.575439 517.715393,740.077942 
	C535.969482,742.152832 554.172913,744.659607 572.615723,744.019226 
	C573.732544,743.980469 574.997620,743.727722 575.833618,745.368896 
	C556.364075,744.132080 536.700134,746.073547 517.139648,744.144409 
	C515.653015,743.997803 514.142822,744.098572 512.643982,744.066528 
	C494.847321,743.686707 477.042664,743.521484 459.256348,742.862793 
	C439.348907,742.125549 419.428375,741.335938 399.567963,739.844421 
	C377.608398,738.195251 355.361237,737.931396 333.995331,732.026123 
	C304.615143,723.905762 279.360870,708.921143 260.270508,684.104980 
	C259.384491,683.383057 259.210480,682.676392 259.327698,681.533630 
	C262.904816,677.565125 266.657684,674.224609 270.547882,670.573364 
	C272.595947,670.480530 273.625549,671.587891 274.538818,672.795105 
	C277.673401,676.938416 281.588806,680.336304 285.217377,684.003723 
	C289.306854,688.137024 290.351685,688.111389 293.760071,683.628235 
	C301.525024,673.414551 309.680145,663.511902 317.678589,653.485474 
	C326.817291,642.029724 336.287109,630.840088 345.332550,619.307495 
	C346.150299,618.264832 346.893188,617.118164 348.654602,616.886780 
z"/>
<path fill="#102757" opacity="1.000000" stroke="none" 
	d="
M264.607666,525.624146 
	C281.651428,507.801514 298.816437,490.206635 318.226074,474.968475 
	C321.360565,472.507629 324.578094,470.152588 327.910675,467.453125 
	C328.422943,466.006775 329.136902,465.250092 330.706177,465.082733 
	C332.588043,464.166382 334.232208,463.368591 335.674835,462.298950 
	C344.520477,455.740234 353.908966,454.411835 364.109650,458.894196 
	C369.244751,461.150604 374.530365,463.064453 379.976562,465.393127 
	C380.412872,468.772675 377.598999,469.753296 375.844513,471.127899 
	C366.909454,478.128387 358.772552,485.979919 351.047577,494.230255 
	C336.846558,509.397064 323.540894,525.322571 310.801392,541.758728 
	C296.230621,560.557556 284.456512,581.343018 269.111725,599.575806 
	C258.194244,612.548035 247.532898,625.734497 236.967712,638.997009 
	C235.827164,640.428711 234.594818,641.796570 232.433899,642.493530 
	C229.188934,641.654297 227.876877,638.956360 225.925903,637.036499 
	C220.469818,631.667358 214.468002,627.152832 207.086456,623.971680 
	C204.199509,622.618286 201.397156,621.941223 198.852844,620.033142 
	C196.079498,617.150818 197.663025,615.028381 199.302551,612.778381 
	C211.881912,595.515320 224.421097,578.222900 237.075226,560.621216 
	C239.195572,554.476624 243.608368,550.259583 247.278503,545.585999 
	C252.712158,538.666748 257.908630,531.524902 264.607666,525.624146 
z"/>
<path fill="#DAEDF8" opacity="1.000000" stroke="none" 
	d="
M393.250488,463.245453 
	C392.088470,455.885651 389.507019,449.246643 387.235718,442.520599 
	C386.830353,441.320129 385.942688,440.349670 386.709595,438.809204 
	C391.319000,429.550537 390.227753,419.628693 390.105988,409.765411 
	C390.017609,402.607239 389.132233,395.598267 388.137268,388.538666 
	C387.587799,384.640198 385.382904,381.584747 384.417114,377.928955 
	C384.542542,386.056671 386.134125,394.005035 386.014709,402.082092 
	C385.906433,409.405792 384.659607,416.551483 382.918518,423.631836 
	C382.642639,424.753815 382.395508,426.135529 381.201416,426.467377 
	C379.606506,426.910583 378.984772,425.364258 378.187775,424.356110 
	C367.111511,410.344543 352.732056,400.616211 337.438660,391.755646 
	C330.645599,387.819946 324.219208,383.100616 317.351440,379.180725 
	C306.055298,372.733337 293.393646,369.629639 281.471863,364.708588 
	C280.706421,364.392609 279.872772,364.235352 279.120667,363.894470 
	C271.003113,360.215179 262.817749,357.188995 253.427277,360.991028 
	C253.476120,353.966888 258.098480,349.786346 265.647888,348.971069 
	C275.739960,347.881226 285.853241,347.820953 295.963501,348.044159 
	C309.528015,348.343567 322.949738,350.150909 336.357697,352.199310 
	C356.185303,355.228485 375.484924,360.386414 394.692657,365.978943 
	C396.433380,366.485809 398.118134,367.184937 400.219299,367.883057 
	C403.388702,370.520386 402.882629,374.111969 403.202881,377.259033 
	C405.505463,399.884460 408.207581,422.465607 410.608276,445.079742 
	C411.299744,451.593506 413.605286,457.657471 417.125610,463.677856 
	C418.330902,465.699219 419.292236,467.379303 419.191681,469.771301 
	C416.676300,471.372498 414.586670,469.980072 412.469208,469.320496 
	C407.630463,467.813324 402.617188,466.878876 397.639465,464.686493 
	C397.064545,464.117798 397.028229,463.730804 397.050537,463.267487 
	C397.069580,462.871368 396.856537,462.728577 396.788757,462.857330 
	C396.849945,462.886810 396.831757,463.033539 396.459595,463.493195 
	C395.262665,463.996735 394.365784,463.949036 393.250488,463.245453 
z"/>
<path fill="#0B2354" opacity="1.000000" stroke="none" 
	d="
M671.333740,312.487854 
	C670.820007,312.334045 670.668884,312.250946 670.285339,312.054016 
	C666.389709,303.896790 670.055603,294.872864 679.134827,289.532043 
	C684.146545,286.583923 689.754211,284.982574 695.322388,282.308594 
	C698.867432,281.084686 701.979309,279.673309 705.183289,280.405945 
	C716.446045,277.070190 727.777771,280.489532 739.573608,281.756897 
	C749.480469,281.827332 757.030457,285.751007 762.920715,293.615845 
	C763.718384,294.812225 764.184937,295.804230 764.982544,296.949890 
	C765.257812,297.366638 765.360901,297.534119 765.597229,297.957214 
	C765.966431,298.710052 766.168396,299.222900 766.561523,299.928711 
	C766.901550,300.417175 767.121216,300.672974 767.563538,301.061981 
	C767.905640,301.306580 768.046143,301.399719 768.404663,301.623291 
	C768.772766,301.834351 768.922913,301.914917 769.302124,302.113342 
	C769.682190,302.315643 769.833191,302.400177 770.199097,302.632660 
	C770.549133,302.892181 770.684143,303.003693 771.209106,303.476044 
	C771.729614,303.962067 771.860107,304.087311 772.387756,304.605957 
	C772.914246,305.142120 773.043640,305.284821 773.356934,305.661438 
	C773.652771,306.066193 773.764648,306.237030 774.032288,306.678894 
	C774.942627,308.551758 776.026855,309.942047 777.231567,311.694031 
	C783.590576,324.172729 783.347961,336.639221 779.169739,349.287872 
	C778.283569,351.970551 777.461731,354.676147 776.227295,357.661041 
	C771.871643,369.487274 766.478394,380.560120 764.922974,392.866058 
	C764.839478,393.526520 764.451904,394.092987 763.775513,394.909698 
	C763.035034,395.473297 762.540100,395.635803 761.617004,395.632019 
	C753.955688,389.776245 749.734314,381.872009 746.036560,373.172852 
	C744.080811,366.618805 745.009644,360.739563 747.392700,354.815826 
	C749.957153,348.441193 748.826233,343.488861 744.927612,341.392487 
	C741.283020,339.432709 736.550049,341.756500 732.635559,347.411926 
	C731.210266,349.471039 730.127197,351.723572 728.910461,353.900879 
	C727.871521,355.759857 726.503113,357.019592 724.154785,356.864197 
	C719.505920,356.556549 713.488770,351.461182 713.902832,346.884277 
	C715.765991,326.288940 701.809753,317.534454 686.334045,309.375641 
	C681.058167,307.254395 676.720581,308.056396 672.722717,312.167358 
	C672.169617,312.423065 671.932922,312.490814 671.333740,312.487854 
z"/>
<path fill="#D6EBF8" opacity="1.000000" stroke="none" 
	d="
M495.699646,421.899078 
	C501.760254,432.299377 505.598877,443.521698 511.990143,453.837738 
	C511.746338,456.332581 509.861267,456.544617 508.392090,456.961975 
	C499.734955,459.421600 491.691406,462.925934 485.374329,469.631775 
	C484.581451,470.473480 483.442230,470.859924 481.905396,471.150452 
	C471.427399,469.922699 461.780029,466.643921 451.855133,464.605652 
	C447.134247,463.636108 442.489716,462.301941 437.807404,461.145721 
	C434.659088,460.368286 433.441132,461.387970 433.992523,464.681610 
	C434.401031,467.121368 434.795654,469.650757 432.820709,472.078186 
	C429.806641,471.390747 429.736298,469.094116 429.506256,466.963043 
	C427.722137,450.436493 426.117371,433.891724 424.495331,417.348633 
	C422.402863,396.007782 420.185333,374.679443 418.044861,353.343475 
	C416.650970,339.449524 415.196350,325.561951 413.801147,311.668243 
	C413.666626,310.328613 413.714355,309.007172 414.636383,307.408936 
	C417.018524,306.721680 417.814484,307.647522 418.064301,309.758575 
	C418.509918,313.524292 419.929199,317.270416 419.813568,320.989685 
	C419.398865,334.326111 422.268555,347.352783 423.082153,360.564087 
	C423.335876,364.683746 424.145508,368.765625 424.097443,372.931580 
	C424.069763,375.332550 425.431702,376.886993 427.669220,377.818817 
	C443.547577,384.431061 458.581329,392.697327 472.603699,402.569672 
	C480.692902,408.264801 487.832306,415.308990 495.699646,421.899078 
z"/>
<path fill="#F5F2E8" opacity="1.000000" stroke="none" 
	d="
M774.764832,358.265686 
	C777.881592,348.810028 781.031677,339.717102 780.645081,329.917603 
	C780.394348,323.561218 778.934753,317.484680 775.755859,311.501160 
	C775.470398,309.975983 775.045410,308.868347 774.460388,307.446045 
	C773.264343,302.264862 768.735535,301.227997 765.350464,298.601013 
	C765.362549,298.249268 765.338623,298.125977 765.305359,298.072723 
	C763.702393,296.815887 764.232666,294.829285 763.390381,292.973755 
	C761.722900,287.282471 757.723511,284.580994 752.431946,282.802246 
	C751.033875,282.161591 750.098633,281.461243 749.138306,280.262512 
	C749.311218,277.423859 751.621277,277.532715 753.191284,277.184814 
	C776.367310,272.049774 799.689514,268.480103 823.577393,268.892975 
	C845.368958,269.269592 862.678040,278.054077 876.094666,294.827240 
	C878.615479,297.978638 880.974121,301.592957 881.011963,306.043304 
	C881.030701,308.249817 880.433289,309.299500 878.097717,308.050232 
	C876.335999,307.107941 874.563416,306.168915 872.730591,305.379608 
	C860.012634,299.902710 847.236572,299.186890 833.983215,303.896759 
	C820.401978,308.723083 812.149292,318.177063 807.634827,331.454407 
	C807.268799,332.530914 806.590820,333.501343 806.040039,334.906677 
	C806.049866,336.669281 805.026855,337.345886 804.087280,337.976074 
	C795.275879,343.885986 787.051392,350.552368 778.895630,357.316528 
	C777.764954,358.254303 776.657837,360.066620 774.764832,358.265686 
z"/>
<path fill="#9EB0F0" opacity="1.000000" stroke="none" 
	d="
M774.575928,358.151337 
	C778.280151,357.880096 779.951477,354.968140 782.123291,353.122223 
	C789.564758,346.797302 797.326660,340.946686 805.809448,335.526855 
	C819.067932,328.640564 832.515076,323.164612 847.017639,320.476288 
	C866.850098,316.799957 886.542114,317.092712 906.525024,322.009277 
	C895.562927,324.957062 884.014648,327.001617 872.987793,331.091034 
	C853.520020,338.310760 835.238831,347.337982 820.652100,362.728363 
	C811.992676,371.864868 806.322144,382.506897 802.992981,394.463989 
	C798.678284,409.960907 793.361450,425.071259 786.234375,439.845428 
	C783.235352,437.122833 783.390869,433.233673 783.089600,429.756744 
	C782.330444,420.996399 777.751343,414.318451 772.519104,407.813843 
	C769.233704,403.729553 765.048218,400.365143 762.826904,395.204712 
	C764.672119,382.053070 769.877075,370.340942 774.575928,358.151337 
z"/>
<path fill="#435580" opacity="1.000000" stroke="none" 
	d="
M414.501831,307.016022 
	C418.015381,337.819977 421.128723,368.599213 424.230774,399.379608 
	C426.565735,422.548523 428.878601,445.719666 431.240784,468.885773 
	C431.337006,469.829437 431.837372,470.731934 432.510437,471.770416 
	C435.009521,470.618683 437.089600,471.641174 439.136841,472.131134 
	C449.953003,474.719849 460.663269,477.750793 471.957642,479.992340 
	C473.635620,480.693176 474.803009,481.630127 476.661560,481.774536 
	C480.304688,482.098938 483.027496,483.998138 486.424683,484.962952 
	C488.040619,484.765228 489.300568,484.710358 490.960602,484.774536 
	C510.857727,489.410675 530.277832,494.356354 549.765564,499.024292 
	C552.342773,499.641602 554.900269,500.345551 557.928467,500.760986 
	C565.084717,504.856354 570.560120,510.166443 574.352173,517.417603 
	C572.232727,519.891968 569.916260,518.876709 567.756775,518.321350 
	C559.148193,516.107483 550.424133,514.388428 541.414734,512.095764 
	C514.534363,505.913605 488.448914,498.269501 462.045898,491.870575 
	C460.743073,491.554810 459.448517,491.371399 457.715271,491.356018 
	C451.566010,490.568329 446.031219,488.824036 440.381836,487.598877 
	C437.415802,486.955658 434.847015,485.444000 432.705658,482.668213 
	C432.329590,482.141418 432.189575,481.925140 431.867615,481.376953 
	C431.585815,480.820251 431.485962,480.595459 431.277222,480.026062 
	C431.966827,475.114746 429.594910,474.149536 425.378662,474.817871 
	C422.742859,473.945251 420.369720,473.272125 419.062439,470.586121 
	C418.370728,468.795807 417.655365,467.371918 416.840210,465.618530 
	C413.647736,454.998352 413.650391,444.283630 412.573975,433.734100 
	C410.365692,412.090912 408.095276,390.452332 406.020935,368.797211 
	C404.453735,352.436646 402.278839,336.126709 401.501160,319.694031 
	C401.391663,317.380157 401.334229,315.019806 402.806519,312.504761 
	C406.004700,308.824310 409.494293,306.713440 414.501831,307.016022 
z"/>
<path fill="#F5F1E7" opacity="1.000000" stroke="none" 
	d="
M121.132233,710.180420 
	C122.121719,706.448059 124.338120,704.028198 126.928101,701.493042 
	C127.260956,700.776428 127.627792,700.511536 128.442673,700.368347 
	C130.336060,700.552612 131.904739,701.001892 133.647415,699.751465 
	C135.316620,698.863464 136.849747,698.476074 138.273148,698.770447 
	C147.274353,700.631897 154.634521,696.482605 162.395691,692.291504 
	C171.028412,687.806824 179.672394,684.350952 188.444077,681.181335 
	C190.980591,680.264832 193.509277,679.562439 196.649887,679.712891 
	C209.010345,680.716309 220.938583,681.825684 233.388824,681.475464 
	C237.112549,681.812866 240.420975,681.339294 244.095566,682.058228 
	C252.253448,689.911865 256.467224,699.344604 257.244507,710.128479 
	C257.678802,716.153198 254.263046,718.846008 248.726227,716.536987 
	C229.341843,708.452881 210.626053,710.671692 192.140335,719.217712 
	C188.449600,720.923950 184.159882,720.930603 180.386276,723.607788 
	C176.780365,724.939087 173.423401,724.478088 170.114685,724.495117 
	C159.960983,724.547485 149.806183,724.589844 139.653000,724.480408 
	C134.449280,724.424377 129.249191,723.910950 124.940460,720.608154 
	C121.667282,718.099304 119.014404,715.102722 121.132233,710.180420 
z"/>
<path fill="#F5F1E7" opacity="1.000000" stroke="none" 
	d="
M670.961670,312.759094 
	C671.148987,312.361664 671.326721,312.306183 671.773315,312.174683 
	C674.651978,311.375610 675.858337,308.440460 678.574707,307.918030 
	C680.612549,307.526093 682.729919,306.721222 684.691101,308.921875 
	C685.185425,310.853973 684.595947,312.220978 683.882324,313.559357 
	C681.830383,317.407806 680.460632,321.539154 679.521606,325.747711 
	C677.351624,335.473663 673.405945,344.319611 667.701111,352.493835 
	C663.754456,358.148682 664.256226,359.868561 670.290955,362.839111 
	C673.600525,364.468231 675.256409,367.042267 676.155884,370.423981 
	C677.414062,375.154510 677.300049,379.972260 677.364990,384.798828 
	C677.477905,393.190369 681.450562,396.878815 689.856934,396.629272 
	C692.693542,396.545044 695.436401,395.746429 698.279907,395.674408 
	C706.935730,395.455261 710.370972,398.969299 709.809082,408.072632 
	C707.168884,410.069885 707.188293,407.663361 706.662720,406.443237 
	C703.937805,400.117706 703.923767,400.039276 698.153625,403.661133 
	C695.401794,405.388367 691.881348,405.796204 689.534546,408.824402 
	C688.671936,409.630890 687.904724,410.011108 687.024109,410.749573 
	C686.658203,411.098633 686.513306,411.239929 686.155884,411.597382 
	C685.521240,412.262146 685.149963,412.750092 684.635071,413.533508 
	C684.160278,414.130402 683.823486,414.409119 683.147095,414.794403 
	C677.750488,416.849976 675.135193,421.881653 670.671204,424.603088 
	C669.306641,425.434998 668.386780,426.965729 666.320801,427.109344 
	C661.154236,419.678436 656.421936,412.299805 651.435059,405.097382 
	C643.617798,393.807190 638.093689,381.242828 631.335938,369.365967 
	C630.204407,367.377228 629.560181,365.042542 630.960571,362.372803 
	C639.916382,343.684540 654.140869,329.732666 668.804260,316.160767 
	C669.797058,315.241882 671.012451,314.678558 670.961670,312.759094 
z"/>
<path fill="#E4DED0" opacity="1.000000" stroke="none" 
	d="
M82.557251,674.017822 
	C85.744797,665.877869 92.152084,663.757690 99.321770,665.187500 
	C108.224159,666.962952 115.994125,664.681335 123.705246,660.934448 
	C134.474228,655.701843 146.180145,653.139771 157.744492,649.088135 
	C169.346893,650.650085 180.474594,652.898499 191.803711,653.650635 
	C193.458160,653.760498 195.122864,653.747864 196.770004,655.204956 
	C197.831009,658.289978 195.531082,659.283325 194.020264,660.678101 
	C177.702438,675.742981 157.779938,682.340454 136.282990,685.305786 
	C126.408455,686.667908 116.500740,687.647461 106.564758,688.382080 
	C105.554008,688.456787 104.587357,688.620361 103.364616,689.394165 
	C97.729607,690.021973 92.834450,688.593384 88.191612,686.387268 
	C82.723740,683.789124 81.163689,680.314087 82.557251,674.017822 
z"/>
<path fill="#263B63" opacity="1.000000" stroke="none" 
	d="
M121.142685,710.018799 
	C120.886749,716.417358 123.832634,720.277771 131.054535,722.105225 
	C139.014114,724.119385 147.161072,723.649353 155.255508,723.595032 
	C163.525238,723.539612 171.793533,723.269348 180.522430,723.002625 
	C183.700790,721.344666 186.711594,721.457214 189.683289,721.452759 
	C204.279419,721.430786 218.878464,721.267822 233.470718,721.506226 
	C242.810089,721.658752 251.997421,720.960266 261.519440,718.926697 
	C262.959320,729.093811 260.003540,732.841248 249.993332,732.886108 
	C212.674057,733.053406 175.353577,733.048462 138.033890,732.962341 
	C129.777161,732.943298 120.283195,724.672791 118.608803,716.697754 
	C118.054054,714.055420 118.277046,711.726196 121.142685,710.018799 
z"/>
<path fill="#DAEDF8" opacity="1.000000" stroke="none" 
	d="
M264.513885,525.614075 
	C255.721771,537.099548 246.198181,548.095337 237.474884,560.133179 
	C231.674698,545.724182 228.851852,530.362915 224.118286,515.556091 
	C222.202133,509.562286 220.653046,503.449280 219.027603,497.366302 
	C218.770477,496.404114 217.483871,495.195068 219.049911,494.317841 
	C220.070160,493.746338 220.871109,494.662262 221.722000,495.175293 
	C227.196213,498.475952 230.653580,504.062622 235.986938,507.567200 
	C242.756165,512.015320 248.960953,517.318420 256.633484,520.978027 
	C258.481903,523.920044 261.285461,524.687744 264.513885,525.614075 
z"/>
<path fill="#E4DED0" opacity="1.000000" stroke="none" 
	d="
M262.119781,718.723022 
	C257.237030,722.444824 251.684967,722.626587 246.247421,722.917175 
	C224.806732,724.062683 203.353882,722.997437 181.444366,723.003235 
	C180.761826,722.159973 180.215744,721.249573 181.537476,721.019775 
	C190.422577,719.475159 198.196167,714.730896 206.862900,712.404419 
	C220.715240,708.685913 234.067215,709.428650 247.279739,714.673950 
	C254.526886,717.551025 256.618134,716.371460 255.903656,708.703796 
	C255.035248,699.384033 250.575195,691.399353 245.007996,683.656616 
	C249.374405,680.484375 254.513275,681.338440 259.687073,680.872192 
	C260.019775,681.855896 260.011292,682.552368 259.988342,683.595215 
	C259.684479,687.807861 260.496490,691.448181 261.824829,695.086182 
	C264.624817,702.754639 264.968597,710.545715 262.119781,718.723022 
z"/>
<path fill="#7381A4" opacity="1.000000" stroke="none" 
	d="
M402.747864,312.227509 
	C402.212250,324.465118 404.541718,336.571747 405.732971,348.760071 
	C406.795288,359.629395 407.879761,370.496643 408.985168,381.361664 
	C410.223999,393.538330 411.519379,405.709229 412.746979,417.886993 
	C413.444214,424.803375 414.083588,431.725891 414.697662,438.650208 
	C415.457581,447.219849 416.164246,455.794220 416.817139,464.827759 
	C410.748108,457.009827 409.333252,447.346497 408.288330,437.550659 
	C405.839661,414.594482 403.342712,391.643433 400.737518,368.330811 
	C399.179657,354.750244 397.839874,341.518494 396.281006,328.312592 
	C395.512665,321.803619 397.489166,316.545959 402.747864,312.227509 
z"/>
<path fill="#F0918D" opacity="1.000000" stroke="none" 
	d="
M197.403519,656.258850 
	C189.542892,654.961487 182.013931,653.995239 174.489944,652.991821 
	C169.005600,652.260437 163.478943,651.731934 158.172272,649.464600 
	C160.790680,648.037781 163.454956,646.986206 166.482239,645.902832 
	C171.606964,645.295410 175.382599,648.212585 179.566956,649.596436 
	C184.391312,651.191956 189.223190,651.977356 194.248581,651.502136 
	C200.393814,650.920959 203.504791,648.234924 204.966370,642.184021 
	C206.032715,637.769226 205.780304,633.286682 205.249344,628.819763 
	C205.014038,626.840271 204.561966,624.834717 206.679016,623.076782 
	C217.106567,626.651550 224.895065,633.357117 231.769562,641.806641 
	C233.193298,643.080200 233.187851,644.487122 233.093521,646.318237 
	C231.025391,651.825195 226.719009,654.253357 221.607025,656.361511 
	C213.378540,658.028198 205.560715,658.113770 197.403519,656.258850 
z"/>
<path fill="#263B63" opacity="1.000000" stroke="none" 
	d="
M82.465790,673.758240 
	C81.784042,679.675781 83.564034,683.034363 89.319618,685.796692 
	C93.378311,687.744629 97.787415,688.304565 102.585167,688.806152 
	C111.208389,687.364868 119.461632,688.432678 127.665115,688.862488 
	C136.089600,689.303894 144.525742,689.776855 152.943405,690.450562 
	C156.081161,690.701843 159.270935,690.512268 162.332092,692.769165 
	C154.400574,699.805847 144.831497,701.134338 134.309982,700.299561 
	C132.980774,702.391174 131.233246,701.149231 129.440033,701.247253 
	C128.560516,701.046875 128.105103,701.034729 127.315300,701.094543 
	C117.125214,698.945984 107.011299,699.131042 97.046173,697.942505 
	C89.269722,697.015015 80.497589,688.362305 79.269539,680.516113 
	C78.836212,677.747620 79.181747,675.198547 82.465790,673.758240 
z"/>
<path fill="#F4A19D" opacity="1.000000" stroke="none" 
	d="
M206.807251,622.663574 
	C206.120697,624.578857 206.092438,626.201050 206.448975,628.145142 
	C207.346115,633.036865 207.507751,637.988403 206.205383,642.905823 
	C204.364563,649.856323 200.802048,652.509338 193.531876,653.057617 
	C184.006683,653.776001 175.900223,649.586853 167.184326,646.039185 
	C171.749756,642.882385 176.689178,639.949341 181.550491,636.892151 
	C188.385391,632.593811 192.577423,625.691711 198.348175,619.850159 
	C201.562073,619.919983 203.999008,621.354980 206.807251,622.663574 
z"/>
<path fill="#C5DCE8" opacity="1.000000" stroke="none" 
	d="
M695.645996,282.748108 
	C691.631897,286.109039 686.280823,286.816711 681.654419,289.256714 
	C672.350586,294.163605 668.517639,301.081879 670.002563,311.488098 
	C669.568909,311.935760 669.084839,311.931366 668.237915,311.911591 
	C667.615601,311.423004 667.489929,310.916565 667.400696,309.991211 
	C665.971252,295.218536 674.378967,285.531525 690.354980,283.483032 
	C692.208679,282.775482 693.588623,281.756470 695.645996,282.748108 
z"/>
<path fill="#263B63" opacity="1.000000" stroke="none" 
	d="
M691.160034,283.416626 
	C679.813721,285.461334 671.577026,290.648163 668.551025,302.256226 
	C667.955444,304.540771 668.024780,306.813782 667.843872,309.537781 
	C667.668884,310.159363 667.543152,310.346039 667.189331,310.283813 
	C664.129822,300.114716 671.599060,287.456207 682.382874,284.000061 
	C683.944336,283.499664 685.604492,283.307007 687.625977,282.988617 
	C688.208313,282.878571 688.383606,282.751862 688.853149,282.762268 
	C689.544434,282.760162 689.941589,282.620972 690.651855,282.441223 
	C691.094727,282.626343 691.224548,282.852081 691.160034,283.416626 
z"/>
<path fill="#D4E8F4" opacity="1.000000" stroke="none" 
	d="
M763.228027,294.684021 
	C757.535400,287.219666 749.583618,283.824158 740.329590,281.905518 
	C739.962952,279.883362 740.618225,278.720795 743.131104,279.280548 
	C746.033264,280.990173 749.376770,280.203064 752.064758,282.396515 
	C757.294067,283.975098 761.014709,286.835480 763.339966,291.887360 
	C763.803284,292.955811 763.801086,293.681274 763.228027,294.684021 
z"/>
<path fill="#435580" opacity="1.000000" stroke="none" 
	d="
M691.326111,283.721497 
	C690.952148,283.529724 690.938599,283.304016 690.945068,282.739471 
	C694.971130,281.204437 698.963562,279.958008 702.996216,278.859161 
	C703.706665,278.665527 705.375916,277.879272 704.874878,280.357300 
	C702.470581,282.694458 699.209900,281.270294 696.296875,282.853455 
	C694.475647,282.894379 693.034058,282.990784 691.326111,283.721497 
z"/>
<path fill="#435580" opacity="1.000000" stroke="none" 
	d="
M752.248596,282.506836 
	C749.221619,281.903076 746.431091,280.951050 743.571777,279.706116 
	C745.092896,279.601746 746.682739,279.790314 748.624023,279.963226 
	C749.861511,280.314850 750.747559,280.682068 751.854187,281.236389 
	C752.211426,281.668518 752.348206,281.913544 752.248596,282.506836 
z"/>
<path fill="#435580" opacity="1.000000" stroke="none" 
	d="
M666.932007,310.329468 
	C666.961304,310.034912 667.377441,309.995056 667.586060,309.983887 
	C667.820984,310.399353 667.847290,310.825989 667.874268,311.574402 
	C667.550903,311.472137 667.226807,311.048065 666.932007,310.329468 
z"/>
<path fill="#435580" opacity="1.000000" stroke="none" 
	d="
M689.013367,282.824707 
	C688.964600,282.950134 688.781982,283.000977 688.316162,283.028564 
	C688.270874,282.796631 688.553040,282.711578 689.013367,282.824707 
z"/>
<path fill="#203763" opacity="1.000000" stroke="none" 
	d="
M432.709595,480.721497 
	C434.833191,484.502808 438.216675,485.830414 441.785126,486.715515 
	C446.563721,487.900818 451.391815,488.886536 456.598083,489.977905 
	C475.043915,494.693787 491.467743,503.036438 507.345673,512.551025 
	C523.176758,522.037537 536.987122,534.006653 549.641785,547.377136 
	C551.479065,549.318298 552.934448,551.571228 555.158386,553.615112 
	C555.611877,553.974731 555.783508,554.127991 556.177124,554.540405 
	C556.976379,555.728088 557.416321,556.758057 558.603394,557.646912 
	C565.759216,566.574097 570.867798,576.496704 577.591248,585.334717 
	C581.709778,590.748474 585.796204,596.143311 591.235718,600.848022 
	C591.541260,601.649780 591.504211,602.129578 591.001160,602.756714 
	C583.735840,602.694275 576.807312,602.476440 569.457764,602.326050 
	C567.302612,603.427673 565.539551,603.517517 563.371704,602.280823 
	C561.553101,601.709473 560.107178,601.412598 558.319702,600.975098 
	C554.694824,599.152100 551.165039,600.373718 547.402222,599.949585 
	C546.568542,599.959717 546.105774,599.989136 545.309814,599.910278 
	C526.637695,596.877808 509.989044,588.511353 492.317749,583.480530 
	C480.472595,580.108398 469.222290,575.163025 457.150024,571.328003 
	C456.769592,571.223450 456.905823,571.240845 456.869263,571.298950 
	C455.628357,569.421936 453.281250,570.029053 451.327209,569.016479 
	C440.647186,565.824463 431.483124,559.860413 421.192719,556.473083 
	C402.994202,550.482666 398.538574,551.524597 386.123413,566.146851 
	C376.416473,577.579407 369.523956,591.042297 359.999023,602.620850 
	C356.302826,607.114014 352.806549,611.771606 349.105713,616.671021 
	C330.806000,639.210022 312.462433,661.306946 295.019775,684.125488 
	C290.411804,690.153687 289.178650,690.317261 284.013947,684.780212 
	C279.821869,680.285889 275.640778,675.781250 271.166626,671.097046 
	C269.372253,670.491760 268.209686,669.531311 267.223267,668.394409 
	C260.297272,660.412415 251.692291,654.882019 241.958557,650.979431 
	C241.174774,650.665283 240.507126,650.171570 239.853912,649.151733 
	C250.171005,636.555969 261.141022,624.780029 272.239807,613.109192 
	C284.170715,600.563354 296.339752,588.257202 308.682068,576.125061 
	C319.705933,565.288940 331.063446,554.767151 340.878723,542.792542 
	C351.231262,530.162354 360.537933,516.785217 368.158142,502.292297 
	C371.878937,495.215729 375.775330,488.238617 380.433838,481.724670 
	C384.289124,476.333832 389.485443,473.641266 396.214447,473.737518 
	C405.525269,473.870758 414.848541,473.482269 424.485870,474.642395 
	C427.900818,475.123596 429.398926,477.733124 431.765747,479.737549 
	C432.021637,479.976013 432.004639,479.991943 432.011047,479.988892 
	C432.168427,480.151947 432.319458,480.318085 432.709595,480.721497 
z"/>
<path fill="#EEF7FC" opacity="1.000000" stroke="none" 
	d="
M682.841553,414.194397 
	C683.409973,413.898315 683.632019,413.732727 683.900513,413.313232 
	C684.432251,412.467407 684.799194,411.748169 685.783447,411.182648 
	C686.019592,411.001068 686.000000,410.999908 686.000488,411.009766 
	C686.461792,410.427765 686.813965,409.733978 687.750854,409.202454 
	C689.129700,405.844086 692.053162,405.134369 694.769226,404.072540 
	C695.981750,403.598480 697.138306,402.922241 698.225342,402.195801 
	C703.895386,398.406830 705.867371,399.114655 707.784180,405.710907 
	C708.055908,406.645935 708.267273,407.598541 708.799316,408.760681 
	C709.255432,409.124634 709.418762,409.270996 709.764343,409.690308 
	C710.267944,410.532532 710.578735,411.108612 711.261108,411.831085 
	C718.232178,415.161224 724.674011,414.057709 731.274231,410.552795 
	C738.659790,407.644073 743.456970,401.556763 749.917786,397.958557 
	C753.126160,396.171722 756.058167,393.271118 760.663086,394.620056 
	C761.454468,394.775757 761.889465,394.820190 762.653198,394.860687 
	C767.281128,399.837738 771.637451,404.770905 775.865662,409.811493 
	C781.572693,416.614929 784.231506,424.632111 785.000916,433.380005 
	C785.173279,435.339661 785.587219,437.278076 785.918579,439.640015 
	C785.780151,448.986206 783.314819,457.117584 778.838318,464.961365 
	C773.939026,473.545868 770.149231,482.757263 764.977844,491.609192 
	C764.744446,493.597900 763.537109,494.526855 762.235840,495.771606 
	C755.753235,503.853607 749.423706,511.654755 743.277161,519.597595 
	C741.842346,521.451721 740.327881,523.152710 738.290649,524.839722 
	C732.286682,531.049805 726.304443,536.834656 720.427307,542.723267 
	C718.666992,544.487000 716.917236,546.324219 713.904602,546.522583 
	C713.303406,546.340088 713.166809,545.922974 712.988892,545.866882 
	C712.360107,545.668762 712.505554,546.699341 712.746521,546.077759 
	C712.754761,546.056641 712.901794,546.089172 713.336304,546.437500 
	C711.067322,553.091064 705.611328,556.081604 699.558105,558.815369 
	C694.735168,556.807251 691.257263,553.607239 688.163208,549.897766 
	C681.361206,541.743042 673.324219,534.902649 664.784912,528.057678 
	C662.239380,521.618774 662.222656,521.510681 667.980042,518.163574 
	C670.159363,516.896606 671.270386,514.414856 674.045044,513.449829 
	C680.808533,517.524780 685.969727,522.937744 689.627075,529.495789 
	C693.264343,536.017761 698.150818,540.834961 705.071106,543.627075 
	C700.928589,541.822876 697.292603,539.257874 694.199463,536.062988 
	C691.057373,532.817444 689.168335,528.654602 687.119934,524.702393 
	C685.085144,520.776306 682.632507,517.346680 678.869751,514.431396 
	C677.431458,511.628662 679.150085,509.988831 680.612366,508.482391 
	C692.731750,495.997437 701.833984,481.219147 712.040527,467.282776 
	C718.357361,458.657562 725.504761,450.797638 734.123169,442.930725 
	C724.215332,447.915771 716.063904,453.820770 708.147583,460.084747 
	C697.051025,468.865143 688.480835,479.708618 680.978638,491.683350 
	C673.314880,503.915955 663.342773,513.819580 648.534546,517.287354 
	C647.366333,517.560913 646.427917,518.253418 645.224792,519.207275 
	C644.242065,519.747009 643.521606,519.854187 642.408203,519.696655 
	C634.181519,514.456909 625.790222,510.200043 617.757629,505.333282 
	C616.229675,504.407501 614.446960,503.736603 613.738037,501.475159 
	C625.577332,488.906281 635.120667,474.909546 644.573059,460.879456 
	C655.171692,445.148071 666.837952,430.299866 679.733704,416.402679 
	C680.543579,415.529938 681.474854,414.876007 682.841553,414.194397 
z"/>
<path fill="#D4E8F4" opacity="1.000000" stroke="none" 
	d="
M712.968140,546.345703 
	C715.845276,545.741028 717.612061,543.773499 719.547058,541.978333 
	C725.541443,536.417053 730.581482,529.854004 737.648193,525.025513 
	C736.234497,531.506042 730.460571,535.177368 727.009583,540.494080 
	C726.392395,541.444946 725.706116,542.350952 725.005859,543.622314 
	C724.849243,544.860229 724.292480,545.420349 723.255371,545.903992 
	C717.111755,550.999878 711.369629,556.161560 705.398743,561.043274 
	C698.745239,566.482971 691.801331,571.555115 684.332825,575.850281 
	C675.934814,580.680115 667.507629,585.459167 659.021729,590.604126 
	C655.801086,592.924927 652.542725,594.583557 648.346008,594.250610 
	C629.908142,601.303833 611.085693,604.049744 591.158936,602.924805 
	C590.609070,602.555725 590.553772,602.199463 590.435303,601.572876 
	C591.218323,588.353638 588.784363,575.470093 589.596680,562.519836 
	C589.700500,560.865662 589.562012,559.198120 589.647766,557.540100 
	C589.948242,551.730835 592.653687,549.908264 598.251343,551.889343 
	C603.628418,553.792358 608.151489,557.294617 612.961060,560.211853 
	C623.369324,566.525085 634.176392,571.872803 646.255737,575.425659 
	C648.815552,575.751465 650.914185,576.378235 652.739380,577.527222 
	C660.010986,582.104797 666.897766,580.902283 673.675903,576.429810 
	C675.334045,575.335693 677.130859,574.450806 678.870483,572.835693 
	C686.317749,568.862915 692.419983,563.665161 698.774536,558.213196 
	C704.758362,555.547485 709.483337,551.895996 712.968140,546.345703 
z"/>
<path fill="#B5C4F7" opacity="1.000000" stroke="none" 
	d="
M762.438110,495.998962 
	C762.051453,494.291077 763.163391,493.255554 764.638062,492.114563 
	C778.013977,491.797943 791.110352,488.341522 804.090088,490.228546 
	C819.276489,492.436340 835.184082,493.770050 847.090881,505.510315 
	C853.547241,511.876312 860.196960,518.119812 864.106262,526.592529 
	C865.232178,529.032776 865.797913,531.628784 864.133667,533.594727 
	C862.405151,535.636780 859.564148,535.481506 857.140869,534.483093 
	C853.961731,533.173279 851.510559,530.772278 849.974915,527.799805 
	C841.621155,511.629364 827.287903,504.818237 810.421631,500.686005 
	C796.957764,497.387390 783.285095,496.918915 769.706848,495.204803 
	C767.493225,494.925354 765.145752,495.706299 762.438110,495.998962 
z"/>
<path fill="#B5C4F7" opacity="1.000000" stroke="none" 
	d="
M648.079834,594.391418 
	C651.579895,593.607849 654.474609,590.962158 658.559692,590.958984 
	C667.331543,592.751526 675.727661,594.376404 683.839478,597.361389 
	C699.538330,603.138306 714.563660,609.886230 726.110901,622.584839 
	C730.156311,627.033691 731.413757,632.259766 730.971985,638.072998 
	C730.845337,639.739807 729.979858,641.095093 728.517151,641.534485 
	C726.766418,642.060364 725.240295,640.879578 724.191833,639.618652 
	C719.722229,634.242798 714.900024,629.206421 709.861816,624.374390 
	C697.508484,612.526489 682.722168,605.292725 666.320374,600.760864 
	C660.203003,599.070679 653.780823,598.011963 648.079834,594.391418 
z"/>
<path fill="#B5C4F7" opacity="1.000000" stroke="none" 
	d="
M871.943604,444.115082 
	C862.952637,441.054901 854.829102,436.680878 845.846008,434.832489 
	C831.176392,431.814026 816.779358,432.545502 802.460327,437.432770 
	C798.260559,438.866211 794.057068,440.796844 789.126953,440.584473 
	C795.248047,437.178101 801.165894,433.317047 807.536560,430.468811 
	C817.860840,425.852936 828.807312,423.363525 840.207031,424.044556 
	C851.464355,424.717072 862.512146,426.779755 873.132446,430.650146 
	C876.981018,432.052704 880.907410,433.197937 884.510864,435.469391 
	C887.463257,437.330444 890.556335,438.505920 889.843750,442.692352 
	C889.482361,444.815582 883.134338,447.202606 879.945129,446.445862 
	C877.373352,445.835632 874.862854,444.967651 871.943604,444.115082 
z"/>
<path fill="#B5C4F7" opacity="1.000000" stroke="none" 
	d="
M723.233643,546.256897 
	C723.449158,545.380859 723.943481,544.799927 724.698975,544.092957 
	C734.884155,542.996338 744.856689,542.496277 754.789429,543.098206 
	C765.184082,543.728149 775.565002,544.948181 784.863770,550.415222 
	C795.091187,556.428284 801.723267,565.684021 807.596985,575.588257 
	C808.511719,577.130676 808.503113,579.303833 807.314331,580.829102 
	C805.877136,582.672913 803.619202,582.269836 801.750549,581.707092 
	C797.618652,580.462708 795.158691,577.092712 793.441589,573.523865 
	C788.278381,562.792786 778.933105,557.484253 768.368408,554.002197 
	C756.859131,550.208740 744.989807,548.068970 732.791138,547.926025 
	C729.693359,547.889771 726.605103,547.032227 723.233643,546.256897 
z"/>
<path fill="#B5C4F7" opacity="1.000000" stroke="none" 
	d="
M503.661255,590.969910 
	C504.044647,594.195374 505.627167,596.647156 507.082672,599.009216 
	C514.133179,610.451538 516.895264,623.192627 517.816895,636.271973 
	C518.259705,642.555969 517.674316,649.081665 512.911499,654.440125 
	C510.611725,657.027588 508.055725,657.709167 505.422577,656.679443 
	C502.661591,655.599854 504.445221,653.060974 504.803680,651.061157 
	C505.911224,644.882751 507.462036,638.726196 507.891296,632.495728 
	C508.793030,619.407715 504.442932,607.384827 499.093109,595.712524 
	C498.187347,593.736328 497.294006,591.824768 497.014130,589.270691 
	C499.679718,587.630188 501.422363,589.620972 503.661255,590.969910 
z"/>
<path fill="#B5C4F7" opacity="1.000000" stroke="none" 
	d="
M563.005737,602.370728 
	C564.732788,602.055603 566.466492,602.104858 568.618530,602.273804 
	C576.298523,605.448792 581.940247,610.688599 586.898193,616.528259 
	C593.509460,624.315369 600.526917,631.965149 603.133972,642.312805 
	C604.455750,647.559265 605.131287,652.727356 601.364136,657.426208 
	C600.433777,658.586609 599.893250,660.256409 598.017761,659.773132 
	C596.270874,659.322998 595.323120,657.989929 595.005188,656.188660 
	C594.260132,651.968384 593.580872,647.732361 592.682007,643.544189 
	C590.418274,632.996460 584.408997,624.527710 577.248108,616.834839 
	C573.196716,612.482483 569.169556,608.019348 563.981750,604.890991 
	C563.166809,604.399475 563.048218,603.583008 563.005737,602.370728 
z"/>
<path fill="#102757" opacity="1.000000" stroke="none" 
	d="
M504.319153,591.302002 
	C501.836182,590.459106 499.772919,589.686340 497.361084,588.895386 
	C484.025543,582.508606 470.545288,577.289062 456.979248,571.502197 
	C462.778503,570.697205 468.186646,573.568665 473.257416,575.655273 
	C481.997375,579.251831 491.018402,581.908569 499.949890,584.633362 
	C513.011536,588.618042 525.346191,594.733032 538.796570,597.548462 
	C540.765442,597.960510 543.236572,596.947571 544.881836,599.441162 
	C533.807800,599.024414 522.915771,596.696960 512.195862,593.614441 
	C509.713531,592.900757 506.844727,593.334900 504.319153,591.302002 
z"/>
<path fill="#102757" opacity="1.000000" stroke="none" 
	d="
M547.409058,600.045898 
	C550.633179,598.516174 554.218262,598.265076 557.875732,600.460327 
	C554.581177,600.610229 551.184021,600.385925 547.409058,600.045898 
z"/>
<path fill="#102757" opacity="1.000000" stroke="none" 
	d="
M451.271423,569.218018 
	C453.387207,567.862183 455.149658,568.916138 456.777344,570.996704 
	C455.069977,570.715820 453.307220,570.074524 451.271423,569.218018 
z"/>
<path fill="#B5C4F7" opacity="1.000000" stroke="none" 
	d="
M559.989136,603.248169 
	C560.098511,603.412964 560.044800,603.579224 559.991028,603.745483 
	C559.936035,603.580200 559.881042,603.414856 559.989136,603.248169 
z"/>
<path fill="#F4A19D" opacity="1.000000" stroke="none" 
	d="
M680.154663,572.792358 
	C670.712585,582.307495 662.767273,583.646179 651.177612,578.084778 
	C650.145203,577.589417 649.018616,577.290466 647.567444,576.885315 
	C623.561707,562.424072 602.575806,544.620850 582.531006,525.646179 
	C579.900879,523.156433 576.583984,521.305237 574.754150,517.563843 
	C569.628296,512.245850 564.620789,507.260986 559.312866,502.129974 
	C558.544495,501.510223 557.951721,501.174164 557.484253,500.718536 
	C550.276917,493.693939 542.653870,487.675812 531.838379,487.338776 
	C528.789551,487.243744 525.767761,485.609558 523.089233,483.932159 
	C514.846008,478.769928 506.465210,479.191711 497.946686,483.054291 
	C495.831146,484.013519 493.733124,484.994324 491.055115,485.482452 
	C489.377960,485.778259 488.051880,485.925629 486.330231,486.137695 
	C482.930450,484.724091 483.413055,482.817902 485.231079,480.705536 
	C487.316376,478.282593 490.368988,477.198090 492.647736,474.989014 
	C489.436279,475.890778 486.764282,477.775787 484.268433,479.929688 
	C482.348877,481.586273 480.371979,482.969818 477.415710,482.799896 
	C475.709808,482.916565 473.932861,483.769562 472.933899,481.391998 
	C474.088318,476.277100 478.319702,473.993744 481.613342,470.502197 
	C482.618347,469.946655 483.580627,469.794769 484.063385,469.231689 
	C491.312714,460.776093 501.413086,457.734131 511.768494,454.429169 
	C515.937988,453.496033 519.662903,454.224243 523.144653,455.932037 
	C533.135010,460.832336 543.925537,463.644257 554.134521,467.950317 
	C558.691956,469.872559 563.067200,472.226440 567.773682,474.616150 
	C579.413574,481.765961 590.560486,489.109406 603.011353,494.899902 
	C606.660217,496.983978 610.137207,498.631287 613.724487,500.768677 
	C620.825073,506.833893 629.266846,510.046387 636.706604,514.906372 
	C638.361450,515.987488 640.025818,517.053955 641.875122,518.394836 
	C642.921082,519.969543 644.410278,520.410339 645.886475,521.441650 
	C646.326294,521.797852 646.487671,521.962646 646.853760,522.413086 
	C651.551392,527.356995 657.354187,530.440430 661.785889,535.228088 
	C666.870972,540.721558 672.316040,545.850342 675.670776,552.730530 
	C678.714294,558.972107 680.559387,565.426758 680.154663,572.792358 
z"/>
<path fill="#FEFEFB" opacity="1.000000" stroke="none" 
	d="
M614.388672,469.190002 
	C614.083496,467.330292 613.554565,466.084412 611.953918,464.926392 
	C602.204224,457.872864 590.879578,453.844299 580.350647,448.301575 
	C561.158142,438.198059 544.348816,425.564056 532.707458,406.779022 
	C529.397339,401.437622 525.879639,396.241760 523.047668,390.615021 
	C522.517456,389.561707 521.742615,388.701935 522.674194,387.337585 
	C525.283752,388.642303 526.201172,391.283661 527.579407,393.388153 
	C537.209534,408.093262 548.468323,421.199860 563.708801,430.365662 
	C573.896423,436.492645 584.403687,441.999756 595.496277,446.401245 
	C600.844238,448.523315 605.862183,451.472870 611.047424,454.011230 
	C612.854187,454.895691 615.001038,455.972321 616.526062,454.106903 
	C617.756897,452.601349 616.801392,450.631409 615.968567,448.937561 
	C607.503357,431.721100 598.953247,414.553070 591.333069,396.925751 
	C587.165405,387.285065 581.789368,378.170898 577.508240,368.573944 
	C573.705688,360.049866 570.685120,351.178162 567.274048,342.477692 
	C565.530701,338.030975 563.343506,334.121063 559.507019,330.770203 
	C549.407593,321.949066 542.069824,310.911072 536.390930,298.789001 
	C534.982605,295.782715 531.911804,293.440521 532.358215,289.466492 
	C534.445862,289.688660 535.051758,291.299194 535.582031,292.492493 
	C540.168701,302.814148 547.373657,311.132507 555.368713,318.878723 
	C556.694702,320.163422 558.213989,322.021912 559.925659,321.433929 
	C562.059326,320.700958 561.006714,318.191650 560.937317,316.533661 
	C560.248352,300.072845 564.754578,284.753845 571.118286,269.865265 
	C572.733643,266.085785 571.943787,261.209015 576.426025,258.140503 
	C577.574585,263.404297 574.414307,267.218445 573.196472,271.413757 
	C567.781982,290.065552 564.636780,308.829468 569.208862,328.159515 
	C569.437622,329.126892 569.707886,330.110413 570.140747,330.997620 
	C570.834167,332.419037 570.975281,334.581909 573.080078,334.569763 
	C575.065369,334.558289 574.901062,332.473541 575.417664,331.176971 
	C579.688843,320.457672 585.121765,310.411865 593.088806,301.974548 
	C596.838806,298.003174 600.767578,294.054413 606.925232,293.032867 
	C603.207397,297.265717 599.044983,301.190002 595.853210,305.788055 
	C585.411072,320.830658 577.457764,336.872437 582.262573,355.910889 
	C585.892029,370.291901 592.343811,383.633942 598.818481,396.983215 
	C605.087646,409.908936 610.446167,423.282196 616.912720,436.137604 
	C620.226929,442.726349 624.055237,449.095398 626.023560,456.287750 
	C626.508118,458.058655 627.893616,458.455933 629.688599,458.972839 
	C628.962280,463.963196 625.488342,466.665039 620.964661,468.009949 
	C618.977783,468.600647 616.841064,468.900421 614.388672,469.190002 
z"/>
<path fill="#C5DCE8" opacity="1.000000" stroke="none" 
	d="
M613.865356,469.400085 
	C615.122742,468.401917 616.324219,467.002014 617.325256,467.133057 
	C623.590637,467.953369 626.201782,463.062164 629.909790,459.314392 
	C632.353455,458.899750 633.375305,456.959412 634.812805,455.656982 
	C645.122986,446.315582 655.403564,436.941559 665.847107,427.277954 
	C669.956238,423.534515 673.922424,420.103149 677.861450,416.640869 
	C679.204102,415.460754 680.270081,413.850006 682.757446,413.991333 
	C668.230225,430.629883 654.218567,447.975891 641.958191,466.665527 
	C635.423889,476.626404 628.170654,486.030548 620.785034,495.346619 
	C619.053955,497.530243 617.395813,499.867828 614.294128,501.017395 
	C609.968933,500.702972 606.836121,498.532135 603.432983,496.148987 
	C600.783752,493.157043 601.819275,489.568115 600.961609,486.061646 
	C600.995300,484.872986 601.237732,484.038849 600.917358,482.926636 
	C600.725220,482.489716 600.641235,482.318756 600.448853,481.884888 
	C600.167603,481.085175 600.062561,480.533722 599.992188,479.423553 
	C598.761230,476.838806 599.427246,476.348297 601.685974,475.846436 
	C606.150208,474.854492 611.222717,474.688446 613.865356,469.400085 
z"/>
<path fill="#F0918D" opacity="1.000000" stroke="none" 
	d="
M602.137451,483.664856 
	C602.040466,487.700684 603.732727,491.274323 603.149231,495.527618 
	C595.187988,492.705994 587.633118,488.634735 580.484131,483.897675 
	C576.371338,481.172394 571.551270,479.436127 568.142578,475.177399 
	C575.091248,476.285126 582.160400,477.722412 589.651123,479.240356 
	C590.903259,479.612762 591.790894,479.438965 592.938843,479.742432 
	C593.579956,479.826294 593.915344,479.802917 594.501221,479.813354 
	C595.566528,479.473419 596.443115,479.530701 597.618896,479.401459 
	C598.393250,479.225464 598.853210,479.129700 599.655884,478.952393 
	C599.998657,478.870911 599.932190,479.069244 599.917664,479.172852 
	C600.486389,479.524078 600.461487,480.117493 600.830566,480.784424 
	C601.011414,480.979187 601.075073,481.434387 601.059937,481.663696 
	C601.461121,482.384308 602.041687,482.738037 602.137451,483.664856 
z"/>
<path fill="#F4A19D" opacity="1.000000" stroke="none" 
	d="
M592.972046,479.647644 
	C592.357117,479.810120 591.469666,479.770538 590.327515,479.526001 
	C590.948364,479.362518 591.823914,479.404053 592.972046,479.647644 
z"/>
<path fill="#F4A19D" opacity="1.000000" stroke="none" 
	d="
M597.607056,479.232330 
	C597.229553,480.041260 596.336792,480.010132 595.094116,479.898346 
	C595.472412,479.173401 596.345581,479.047180 597.607056,479.232330 
z"/>
<path fill="#2C436F" opacity="1.000000" stroke="none" 
	d="
M425.296387,474.685822 
	C424.059845,476.275330 422.597809,476.209564 421.362549,475.937317 
	C412.956787,474.084625 404.450409,475.401886 396.003510,474.998627 
	C389.377991,474.682343 384.648621,477.766632 380.946533,483.045288 
	C372.645355,494.881592 367.122864,508.337158 358.961029,520.271362 
	C351.378906,531.357910 343.778503,542.434326 334.369049,552.039429 
	C318.238647,568.505310 301.524017,584.405945 285.605469,601.070007 
	C271.412903,615.927246 256.512054,630.162659 243.825928,646.412109 
	C242.893356,647.606689 241.664291,647.841125 240.236496,648.594238 
	C238.852936,650.222412 237.454910,649.347351 235.808624,649.193726 
	C235.250412,649.069946 235.029190,649.011841 234.485672,648.835938 
	C233.532104,648.427795 232.986969,648.027344 232.384155,647.181885 
	C232.116287,645.538330 232.030014,644.181458 231.989929,642.415283 
	C238.553909,636.709106 242.854599,629.498352 248.152924,623.159973 
	C258.036865,611.335938 267.887543,599.460144 277.181885,587.174500 
	C285.370300,576.350830 292.681915,564.868286 300.559082,553.803711 
	C311.236633,538.805542 322.584412,524.343079 334.802460,510.538391 
	C343.068390,501.198975 351.411652,491.965088 360.269379,483.181305 
	C366.416107,477.085938 373.351898,471.940521 380.028870,465.964111 
	C384.140411,464.574768 387.837677,462.379303 392.580383,463.050903 
	C393.948669,463.181274 394.894135,463.368591 396.168091,463.395630 
	C396.726990,463.092316 396.957336,462.949249 396.973145,463.151733 
	C403.947327,465.683197 411.136047,467.869110 418.705414,470.137329 
	C420.720856,471.589111 422.425140,472.836243 424.787048,473.560516 
	C425.200317,473.989471 425.384399,474.187347 425.296387,474.685822 
z"/>
<path fill="#FFFFFF" opacity="1.000000" stroke="none" 
	d="
M330.890747,464.778625 
	C330.246124,465.724915 329.455200,466.359985 328.364197,467.076355 
	C318.859253,464.767273 312.881104,457.313171 305.327576,452.365601 
	C289.660736,442.103607 273.638062,432.617584 256.521698,425.021057 
	C242.574677,418.831146 228.545456,412.793030 213.503723,409.730835 
	C193.542328,405.667084 173.702301,406.040039 154.144684,412.166351 
	C152.601196,412.649872 151.257462,413.770721 149.820389,414.594482 
	C148.548935,415.323273 147.276810,416.050903 145.694382,416.332092 
	C148.247711,412.629700 152.080048,410.535950 156.179001,409.170502 
	C174.111908,403.196808 192.418991,403.881104 210.731506,406.806061 
	C237.742004,411.120331 262.735565,421.039185 286.226715,434.855164 
	C289.747681,436.925964 291.636627,435.793549 292.634430,432.495300 
	C295.941193,421.564636 296.289825,410.655151 291.950989,399.845490 
	C289.731262,394.315277 287.680695,388.717194 285.467010,383.184479 
	C284.968903,381.939636 282.988373,380.649078 284.965363,379.558075 
	C286.231995,378.859039 287.285461,380.625275 287.832825,381.765961 
	C291.121399,388.619110 294.804169,395.272278 297.022125,402.635193 
	C300.500183,414.181427 301.005829,425.748230 298.285461,437.467499 
	C297.815002,439.494202 298.234222,440.877594 300.105621,442.093781 
	C307.600708,446.964691 314.859863,452.214233 322.497406,456.843414 
	C325.871674,458.888550 328.747589,461.106262 330.890747,464.778625 
z"/>
<path fill="#F0918D" opacity="1.000000" stroke="none" 
	d="
M234.772156,648.490601 
	C236.558044,647.651306 237.863297,648.589294 239.632095,648.845215 
	C252.010986,653.421265 262.456421,660.254517 270.752380,670.621033 
	C267.819061,674.584167 264.834747,678.333496 260.319061,680.976501 
	C255.406570,682.594055 250.684570,683.305481 245.389771,683.228760 
	C241.599411,683.238403 238.258514,683.147217 234.461609,683.022217 
	C233.980301,680.710876 235.849991,681.038513 237.168640,680.815552 
	C238.962051,680.512329 240.754257,680.292053 242.439713,679.544250 
	C247.638550,677.237793 248.368576,675.008057 245.812256,669.867310 
	C243.219162,664.652649 239.596375,660.147400 236.174011,655.502808 
	C234.666367,653.456726 233.182495,651.474792 234.772156,648.490601 
z"/>
<path fill="#EEF7FC" opacity="1.000000" stroke="none" 
	d="
M396.586700,463.276276 
	C396.799408,463.170105 396.810059,462.327911 397.343933,462.922394 
	C397.347748,462.926575 397.161957,463.101074 396.911682,463.346680 
	C396.758606,463.497284 396.676758,463.317200 396.586700,463.276276 
z"/>
<path fill="#F4A19D" opacity="1.000000" stroke="none" 
	d="
M732.215210,410.893005 
	C725.763672,415.877228 714.876648,416.567627 710.188477,412.310242 
	C709.517273,411.541809 709.532837,410.904083 709.241882,410.060669 
	C709.128601,409.781281 709.149414,409.378113 709.120728,409.178223 
	C708.896362,407.004120 708.904541,404.982971 708.463074,403.065369 
	C707.488892,398.834290 705.095947,396.362366 700.325745,396.915741 
	C696.214294,397.392700 692.075134,397.866760 687.945129,397.896179 
	C680.472046,397.949432 676.192078,393.687195 675.980347,386.233612 
	C675.834412,381.095734 676.276001,375.930664 674.991638,370.864227 
	C674.139648,367.503387 672.806519,364.948517 668.961365,363.768646 
	C663.122742,361.977112 661.738953,358.340454 665.306030,353.598419 
	C672.149109,344.501251 676.389465,334.390656 678.778076,323.375458 
	C679.805054,318.639435 682.029175,314.366089 684.113403,309.680878 
	C684.205688,308.432800 684.901733,308.425201 685.810669,308.146179 
	C698.043884,312.109406 706.797607,320.228149 713.450134,330.680542 
	C715.943054,334.597290 715.490784,339.312927 715.185364,343.822021 
	C714.749695,350.255188 716.511230,352.700867 722.506409,355.121674 
	C725.263794,356.235077 726.707764,355.826752 727.856384,353.007568 
	C729.692017,348.502502 732.280457,344.404602 736.251099,341.442871 
	C739.165466,339.269043 742.365173,337.844910 745.901306,340.173218 
	C749.415588,342.487183 751.049683,345.772278 750.327393,349.980713 
	C750.020935,351.766388 749.550903,353.586273 748.789551,355.220245 
	C746.220947,360.732574 745.724121,366.378601 747.261169,372.659790 
	C745.836182,373.656158 744.161011,373.534912 743.312744,375.485901 
	C737.888428,387.962006 727.137878,392.749603 714.700562,395.036102 
	C713.829041,395.196350 712.862427,394.992828 711.945557,395.662811 
	C721.823181,396.509155 728.110718,402.020203 732.215210,410.893005 
z"/>
<path fill="#F29792" opacity="1.000000" stroke="none" 
	d="
M732.612061,411.157776 
	C730.419250,410.251343 729.739685,408.428711 728.648254,406.763611 
	C724.942505,401.109863 719.704651,397.531036 712.712769,396.983765 
	C711.332764,396.875732 709.733154,397.594574 708.447815,395.997101 
	C709.542847,394.177948 711.316956,394.227051 713.100403,393.957458 
	C723.479370,392.388733 732.934509,389.103790 739.512756,380.105682 
	C741.042847,378.012756 741.751038,375.701233 742.785583,373.465759 
	C743.766907,371.345367 744.921753,370.456238 746.984009,372.925110 
	C750.605774,380.853607 755.008728,387.931641 760.863281,394.458801 
	C754.008301,395.475952 748.832458,399.772247 743.685852,403.949341 
	C740.314026,406.685883 736.913147,409.280365 732.612061,411.157776 
z"/>
<path fill="#FFFFFF" opacity="1.000000" stroke="none" 
	d="
M685.763428,307.689148 
	C685.624023,308.345367 685.166687,308.733368 684.418762,309.222534 
	C681.152527,306.482697 678.685120,308.339508 676.455139,310.353729 
	C675.245850,311.446014 674.446289,312.978302 672.252502,312.330505 
	C675.037842,306.321564 679.910461,305.922363 685.763428,307.689148 
z"/>
<path fill="#102757" opacity="1.000000" stroke="none" 
	d="
M765.300171,298.564178 
	C769.570312,299.914368 773.566406,301.837158 775.516479,306.794617 
	C774.829163,307.587524 774.118286,307.330444 773.239380,306.361328 
	C772.994507,306.030334 772.986572,306.010773 772.977661,306.005066 
	C772.816162,305.832184 772.663574,305.664948 772.261353,305.267456 
	C772.011719,305.037201 771.973389,305.026550 771.968140,305.007324 
	C771.810608,304.822998 771.658325,304.657837 771.258301,304.264252 
	C771.010620,304.035797 770.975464,304.024628 770.969849,304.007080 
	C770.810547,303.822906 770.656738,303.656342 770.252136,303.260132 
	C770.001282,303.030548 769.989380,303.013397 769.979736,303.009216 
	C769.569397,302.537354 768.984070,302.493561 768.213806,302.176636 
	C767.981689,302.011963 768.000000,301.998779 767.998169,302.010010 
	C767.555298,301.502441 766.849915,301.496460 766.115295,300.906067 
	C765.688110,300.064240 765.462952,299.471680 765.300171,298.564178 
z"/>
<path fill="#102757" opacity="1.000000" stroke="none" 
	d="
M763.014038,295.302490 
	C762.991333,294.232025 763.012390,293.503113 762.995728,292.405762 
	C763.164551,291.874847 763.371094,291.712433 763.942993,291.697754 
	C765.487854,293.474274 765.296265,295.366669 765.306274,297.616577 
	C764.079407,297.651489 763.290039,296.907501 763.014038,295.302490 
z"/>
<path fill="#7381A4" opacity="1.000000" stroke="none" 
	d="
M772.806152,306.337280 
	C773.645569,306.352417 774.296692,306.674469 775.315369,307.066162 
	C776.483643,308.231750 776.176025,309.353302 775.677002,310.823120 
	C774.601807,309.660675 773.609741,308.152466 772.806152,306.337280 
z"/>
<path fill="#7381A4" opacity="1.000000" stroke="none" 
	d="
M766.032104,300.991760 
	C766.585571,300.875946 767.257812,301.095093 767.963196,301.667725 
	C767.381165,301.789673 766.766113,301.558167 766.032104,300.991760 
z"/>
<path fill="#7381A4" opacity="1.000000" stroke="none" 
	d="
M768.064880,302.347565 
	C768.685791,301.622345 769.268677,301.903748 769.896423,302.674866 
	C769.244507,303.567139 768.703125,303.086517 768.064880,302.347565 
z"/>
<path fill="#7381A4" opacity="1.000000" stroke="none" 
	d="
M771.926575,305.377197 
	C772.332275,305.165710 772.652893,305.294220 772.971130,305.711060 
	C772.593018,305.905334 772.217224,305.811249 771.926575,305.377197 
z"/>
<path fill="#7381A4" opacity="1.000000" stroke="none" 
	d="
M770.929810,304.359680 
	C771.346619,304.156647 771.682617,304.277496 771.990723,304.693237 
	C771.591553,304.886627 771.220215,304.785095 770.929810,304.359680 
z"/>
<path fill="#7381A4" opacity="1.000000" stroke="none" 
	d="
M769.897583,303.356812 
	C770.336121,303.156891 770.670898,303.283264 770.984985,303.699585 
	C770.574158,303.887360 770.183960,303.785217 769.897583,303.356812 
z"/>
<path fill="#7381A4" opacity="1.000000" stroke="none" 
	d="
M481.482056,470.214142 
	C480.252014,474.723816 475.654083,476.739838 473.122833,480.848358 
	C461.360382,480.016907 450.575989,475.937592 439.400208,473.630341 
	C437.458801,473.229553 435.566467,472.590942 433.261444,471.974731 
	C432.692566,469.239594 432.675903,466.568695 432.300507,463.949219 
	C431.552185,458.727783 431.919403,458.315369 436.994476,459.535828 
	C451.691254,463.070251 466.388153,466.604279 481.482056,470.214142 
z"/>
<path fill="#263B63" opacity="1.000000" stroke="none" 
	d="
M764.257446,291.495209 
	C764.082642,291.872803 763.856934,291.900146 763.294556,291.982391 
	C760.413757,288.037262 756.809204,285.273651 752.320923,283.017761 
	C752.026489,282.616791 752.040771,282.378510 752.064880,281.781860 
	C757.261719,283.237457 761.607117,286.101715 764.257446,291.495209 
z"/>
<path fill="#C5DCE8" opacity="1.000000" stroke="none" 
	d="
M574.268433,517.409485 
	C577.446716,519.686279 580.433044,521.969849 583.038452,524.626892 
	C594.658325,536.477051 607.986206,546.310791 620.662781,556.920410 
	C629.039490,563.931274 638.434448,569.488098 647.091248,576.547852 
	C634.831909,574.082397 623.891235,568.173889 613.051575,561.828369 
	C607.662781,558.673889 602.764648,554.566772 596.604919,552.713196 
	C592.653320,551.524170 590.982422,552.751892 590.980408,556.841736 
	C590.973938,569.753845 590.879883,582.663635 591.954529,595.551270 
	C592.099731,597.292664 592.506348,599.226196 590.763123,601.054932 
	C586.882812,599.475098 584.722351,596.270203 582.353210,593.343323 
	C573.480896,582.382019 565.899536,570.534180 558.444946,558.228210 
	C557.146851,557.444824 556.884338,556.334900 556.286194,555.081543 
	C556.200684,554.767456 556.225708,554.874634 556.258911,554.830688 
	C553.332581,553.084595 552.434204,549.863770 550.947144,547.171875 
	C546.137756,538.465759 541.716431,529.553711 539.386047,519.798828 
	C538.702209,516.936523 537.886353,513.924683 540.654175,511.179260 
	C549.459412,511.802399 557.418945,514.766785 565.667969,516.399719 
	C568.386536,516.937866 570.991028,518.354553 574.268433,517.409485 
z"/>
<path fill="#102757" opacity="1.000000" stroke="none" 
	d="
M540.780273,510.740662 
	C538.851196,515.155518 540.373840,519.168945 541.594849,523.082092 
	C545.023315,534.070618 550.651672,544.053955 556.203979,554.445129 
	C554.761719,555.159668 553.727234,554.346680 552.863647,553.271301 
	C542.083923,539.847717 529.197937,528.621033 515.136230,518.918701 
	C500.834656,509.050964 485.292725,501.254089 469.078552,494.902954 
	C465.225616,493.393799 461.328461,491.997650 457.224609,490.273682 
	C465.679932,490.281586 473.974182,492.824249 482.097626,495.351135 
	C501.349670,501.339691 521.112671,505.220825 540.780273,510.740662 
z"/>
<path fill="#7381A4" opacity="1.000000" stroke="none" 
	d="
M491.094299,485.792908 
	C500.983643,479.016724 511.540466,475.542023 523.136536,482.553040 
	C528.510986,485.802460 534.539001,487.235870 540.670288,487.804382 
	C544.445618,488.154419 547.415771,489.476746 549.777954,492.245850 
	C552.580505,495.531097 556.722534,497.443726 558.978516,501.642822 
	C555.090698,502.387756 551.504028,500.844971 547.831482,499.946167 
	C529.033630,495.345795 510.264069,490.630219 491.094299,485.792908 
z"/>
<path fill="#7381A4" opacity="1.000000" stroke="none" 
	d="
M477.531677,483.107605 
	C481.405334,481.424805 484.473419,478.035980 488.266083,475.766296 
	C490.392456,474.493805 492.486237,472.580627 495.921387,473.585297 
	C493.420105,477.226379 489.364502,477.996643 486.696411,480.548065 
	C485.151917,482.025055 482.990692,483.293701 485.764404,485.919983 
	C482.776428,486.445374 481.037567,482.932251 477.531677,483.107605 
z"/>
<path fill="#102757" opacity="1.000000" stroke="none" 
	d="
M425.323120,475.140076 
	C425.019073,474.788147 425.013824,474.589874 425.012390,474.091553 
	C425.497406,473.831665 425.985596,473.945465 426.458710,473.900665 
	C432.726196,473.307190 432.725677,473.301636 432.014404,479.574219 
	C428.994720,479.636719 427.493958,477.211517 425.323120,475.140076 
z"/>
<path fill="#102757" opacity="1.000000" stroke="none" 
	d="
M432.858551,480.742615 
	C432.636475,480.865906 432.389557,480.684326 432.112671,480.199890 
	C432.328400,480.081879 432.578735,480.262085 432.858551,480.742615 
z"/>
<path fill="#D4CDC0" opacity="1.000000" stroke="none" 
	d="
M163.012299,693.085693 
	C143.092850,690.886475 123.408508,690.815369 103.412071,688.893250 
	C103.233948,687.315430 104.256104,687.049744 105.536934,686.994751 
	C121.562271,686.306763 137.518906,684.527527 153.070724,680.789429 
	C166.960648,677.450745 179.893982,671.440369 190.770477,661.745850 
	C192.740189,659.990112 194.756317,658.286499 196.910370,656.251221 
	C205.146530,655.590515 213.276276,656.979553 221.734207,655.231201 
	C223.363541,656.562561 223.221664,658.172241 223.119202,660.143066 
	C220.146103,667.232727 213.620087,670.061279 208.258774,674.083801 
	C204.684219,676.765747 200.590851,678.694275 196.238983,680.790405 
	C186.960144,681.827332 179.231384,686.426086 171.005081,689.539795 
	C168.401962,690.525146 165.931335,691.860474 163.012299,693.085693 
z"/>
<path fill="#F4A19D" opacity="1.000000" stroke="none" 
	d="
M196.402679,681.065308 
	C196.225372,678.471558 198.612015,678.301453 200.245178,677.407227 
	C208.101273,673.105225 215.554565,668.278931 221.861420,661.377808 
	C225.391327,656.409668 229.269882,652.173950 233.727631,648.076538 
	C234.067535,648.004211 234.550217,648.088623 234.786926,648.153809 
	C234.150711,654.244629 239.503403,657.062134 242.066193,661.221802 
	C244.033722,664.415283 245.926636,667.687317 247.882477,670.898376 
	C249.911774,674.230164 249.256714,676.844666 245.770142,679.264404 
	C242.255173,681.703857 238.382614,681.745544 234.275848,682.707275 
	C221.564926,683.268677 209.179413,682.473877 196.402679,681.065308 
z"/>
<path fill="#FFFFFF" opacity="1.000000" stroke="none" 
	d="
M129.271576,701.329163 
	C130.375992,700.842712 131.736053,700.626282 133.515320,700.418701 
	C132.974823,702.734131 131.212265,702.020935 129.271576,701.329163 
z"/>
<path fill="#C5DCE8" opacity="1.000000" stroke="none" 
	d="
M685.685669,411.040802 
	C685.517456,411.605194 685.015320,412.209320 684.255127,412.970032 
	C684.035034,412.170746 684.255127,411.335480 685.685669,411.040802 
z"/>
<path fill="#C5DCE8" opacity="1.000000" stroke="none" 
	d="
M687.650146,409.060974 
	C687.485474,409.600830 687.003845,410.183105 686.261597,410.892487 
	C686.067505,410.118347 686.295593,409.329407 687.650146,409.060974 
z"/>
<path fill="#F5F1E7" opacity="1.000000" stroke="none" 
	d="
M233.933182,647.743591 
	C230.818115,652.800659 226.887344,656.998352 222.345520,661.018555 
	C222.029327,659.407898 222.052795,657.736328 222.117371,655.660034 
	C225.823746,653.212524 229.428009,651.093140 232.036469,647.205566 
	C232.734650,647.091187 233.266739,647.287109 233.933182,647.743591 
z"/>
<path fill="#102757" opacity="1.000000" stroke="none" 
	d="
M556.140259,555.151855 
	C556.805237,555.645142 557.409729,556.522827 558.092773,557.717896 
	C556.577942,557.952271 555.908264,557.096252 556.140259,555.151855 
z"/>
<path fill="#DEF2FC" opacity="1.000000" stroke="none" 
	d="
M675.278809,514.039429 
	C671.392273,515.982727 669.358215,519.851196 664.946472,521.137146 
	C662.631775,521.811829 665.605530,525.186951 664.864258,528.000610 
	C663.557678,529.101501 662.422363,529.070923 660.946716,528.840332 
	C660.411682,528.674561 660.206238,528.586731 659.726440,528.313049 
	C658.364624,527.065979 657.125488,526.291138 655.271606,526.015503 
	C654.746765,525.895996 654.538025,525.840576 654.021240,525.683716 
	C653.304077,525.436768 652.894287,525.292969 652.167358,525.059021 
	C649.992798,524.266296 647.912415,524.035217 646.270386,522.168884 
	C646.056641,521.911133 646.014526,521.991150 646.052734,521.966980 
	C645.782837,521.764587 645.532837,521.524475 645.223755,520.990845 
	C645.059265,520.583069 645.003357,520.416077 644.885071,519.727051 
	C645.114624,517.367554 646.021729,516.374634 648.010376,515.981812 
	C663.220032,512.977478 673.064697,502.568909 680.545471,490.251892 
	C689.420166,475.639862 700.629639,463.605896 714.429871,453.787659 
	C720.612000,449.389404 726.748718,444.908081 733.733459,441.782715 
	C734.677795,441.360168 735.472046,440.781647 736.698608,441.798248 
	C730.831604,448.045898 724.347839,453.662323 719.003784,460.390045 
	C713.857544,466.868591 709.695740,474.101135 704.461670,480.389130 
	C697.558594,488.682281 692.664917,498.493622 684.659424,505.908112 
	C682.399475,508.001190 679.873230,510.016602 679.025391,513.610840 
	C677.908752,515.130859 676.740723,514.385986 675.278809,514.039429 
z"/>
<path fill="#F29792" opacity="1.000000" stroke="none" 
	d="
M646.041382,522.294189 
	C648.048828,522.602173 650.041016,523.293152 652.383240,524.026978 
	C653.060181,524.210144 653.358276,524.395996 653.807617,524.824829 
	C653.992615,525.015015 654.000000,525.000000 653.993164,525.005737 
	C655.792908,525.935608 657.963196,526.076965 659.720459,527.840576 
	C659.938171,528.105530 660.005798,528.051636 659.962891,528.057007 
	C661.387695,528.926819 662.927856,528.872742 664.797729,528.258423 
	C665.096130,528.092712 665.124512,528.158508 665.156250,528.178589 
	C671.454590,529.545654 674.407288,535.244324 678.909607,538.867920 
	C685.956726,544.539734 691.008240,552.372559 698.733704,557.864746 
	C698.560364,561.879700 694.851013,562.780334 692.487427,564.856812 
	C688.936707,567.976135 685.260742,571.021667 680.473877,572.983032 
	C677.765259,570.871948 679.163879,567.801208 678.675171,565.140442 
	C676.541870,553.525269 669.902954,544.741333 661.675598,536.916077 
	C657.287048,532.742004 653.142334,528.205200 647.469055,525.608765 
	C646.259521,525.055298 646.006226,523.902283 646.041382,522.294189 
z"/>
<path fill="#D4E8F4" opacity="1.000000" stroke="none" 
	d="
M675.127075,514.307556 
	C676.068481,512.350586 677.236694,513.936768 678.696777,513.953796 
	C682.529480,514.878418 684.731750,517.510803 686.110596,520.453796 
	C690.960022,530.804871 696.611328,540.272888 708.507812,544.176880 
	C703.527405,545.520325 700.112976,542.848755 696.898926,540.288818 
	C693.668457,537.715576 691.160828,534.475647 689.213806,530.669983 
	C685.920593,524.233337 680.027466,519.879333 675.127075,514.307556 
z"/>
<path fill="#F29792" opacity="1.000000" stroke="none" 
	d="
M645.810486,519.984131 
	C645.964905,520.599060 645.991516,520.983887 646.054504,521.655762 
	C643.987244,522.335632 642.884094,521.213684 642.151611,519.030579 
	C642.750732,518.825195 643.437073,518.987793 644.473022,519.177734 
	C644.822693,519.205017 644.911499,519.153015 644.908081,519.101685 
	C645.193115,519.252625 645.452393,519.487305 645.810486,519.984131 
z"/>
<path fill="#D4E8F4" opacity="1.000000" stroke="none" 
	d="
M713.003174,545.996826 
	C712.279663,545.876038 711.553101,545.758423 710.826477,545.640747 
	C711.381592,544.687500 712.026245,545.156433 712.830505,545.765381 
	C712.996460,546.005676 713.000000,546.000000 713.003174,545.996826 
z"/>
<path fill="#F5F1E7" opacity="1.000000" stroke="none" 
	d="
M709.098633,410.104340 
	C709.415466,410.311829 709.702393,410.842377 709.987915,411.683716 
	C709.680603,411.472168 709.374634,410.949768 709.098633,410.104340 
z"/>
<path fill="#7381A4" opacity="1.000000" stroke="none" 
	d="
M497.479736,472.503235 
	C497.468689,472.486816 497.490753,472.519623 497.479736,472.503235 
z"/>
<path fill="#F4A19D" opacity="1.000000" stroke="none" 
	d="
M602.194336,483.783813 
	C601.718811,483.454620 601.448120,482.953522 601.111084,482.172699 
	C601.812134,482.217072 602.977600,482.227448 602.194336,483.783813 
z"/>
<path fill="#F4A19D" opacity="1.000000" stroke="none" 
	d="
M601.010132,480.686066 
	C600.683899,480.582581 600.356323,480.185974 599.965942,479.532898 
	C600.271729,479.648621 600.640320,480.020782 601.010132,480.686066 
z"/>
<path fill="#EEF7FC" opacity="1.000000" stroke="none" 
	d="
M659.908447,527.736328 
	C657.817749,527.840881 656.167480,526.553162 654.185547,525.282593 
	C656.252930,525.040222 658.634583,524.780945 659.908447,527.736328 
z"/>
<path fill="#EEF7FC" opacity="1.000000" stroke="none" 
	d="
M664.665100,528.060547 
	C663.659363,530.009705 662.000488,529.727844 660.087158,528.322144 
	C661.358032,528.050964 662.796082,528.039612 664.665100,528.060547 
z"/>
<path fill="#EEF7FC" opacity="1.000000" stroke="none" 
	d="
M653.856506,524.773865 
	C653.672363,524.853882 653.352173,524.692810 652.882568,524.300781 
	C653.062317,524.224121 653.391357,524.378418 653.856506,524.773865 
z"/>
<path fill="#EEF7FC" opacity="1.000000" stroke="none" 
	d="
M645.858643,519.948853 
	C645.639771,520.005005 645.341187,519.795715 644.973633,519.318359 
	C645.196106,519.261292 645.487610,519.472351 645.858643,519.948853 
z"/>
</svg>